<svg width="66" height="214" viewBox="0 0 66 214" fill="none" xmlns="http://www.w3.org/2000/svg">
<path d="M17.1907 8.88869C16.7776 8.0125 18.8516 2.07329 19.9009 1.12738C20.3138 0.755062 21.0277 0.586381 21.488 0.751876C22.7178 1.19413 22.7464 2.69485 21.586 5.92158C20.1422 9.93681 18.279 11.1945 17.1907 8.88869Z" fill="#FFA774"/>
<path d="M10.3809 18.4721C10.3658 17.7669 13.0939 12.5895 14.0977 11.4189C14.6833 10.7376 16.9099 11.6703 16.9305 12.6049C16.9463 13.3778 14.4272 17.4596 12.9391 19.0707C12.0555 20.0293 10.4062 19.643 10.3809 18.4721Z" fill="#FFA774"/>
<path d="M7.70737 30.6798C5.46394 31.1699 6.73247 23.8085 9.23488 21.8184C9.95252 21.2476 11.336 21.9446 11.4623 22.9406C11.6515 24.4478 8.73639 30.4557 7.70737 30.6798Z" fill="#FFA774"/>
<path d="M3.77391 37.6579C4.32137 35.7027 4.98464 33.7848 5.24846 33.3941C6.22994 31.9426 7.90283 33.5168 7.60553 35.6133C7.03439 39.6431 5.54424 42.207 4.07777 41.6797L2.77771 41.2122L3.77391 37.6579Z" fill="#FFA774"/>
<path d="M2.87508 53.6226C1.03059 53.1911 1.36252 45.8744 3.27775 44.7455C5.58817 43.3832 6.35255 46.5979 4.8605 51.4085C4.11228 53.824 4.04635 53.8971 2.87508 53.6226Z" fill="#FFA774"/>
<path d="M55.5339 73.4741C53.8488 70.807 53.6161 69.6656 54.5376 68.5975C55.8668 67.0569 60.9934 73.7371 60.0048 75.7229C59.1509 77.4402 57.5207 76.6208 55.5339 73.4741Z" fill="#FFA774"/>
<path d="M45.6169 70.0634C41.2552 68.495 39.6514 66.1285 42.5846 65.5901C44.11 65.3084 49.6611 67.4806 50.1697 68.5569C51.2904 70.9359 49.5977 71.4949 45.6169 70.0634Z" fill="#FFA774"/>
<path d="M62.942 87.2709C60.9716 87.312 60.766 79.0934 62.7087 77.9494C64.7001 76.7761 65.4668 78.3471 64.989 82.6276C64.5647 86.4329 64.2072 87.2433 62.942 87.2709Z" fill="#FFA774"/>
<path d="M0.73259 65.1455C-0.202118 64.1111 0.437721 57.8366 1.61781 56.4698C2.23881 55.7513 3.67614 56.2168 4.05439 57.2594C5.30987 60.7211 2.58281 67.1942 0.73259 65.1455Z" fill="#FFA774"/>
<path d="M33.7383 78.8363C30.41 78.9055 34.1051 73.423 38.3611 71.9784C39.3816 71.631 39.2706 71.6131 40.0229 72.2606C41.324 73.3827 36.1603 78.7845 33.7383 78.8363Z" fill="#FFA774"/>
<path d="M61.0407 98.7559C58.8191 99.2465 59.8103 92.4073 62.2833 90.1763C62.772 89.736 63.3874 89.6536 63.9538 89.9526C65.1651 90.5936 62.5762 98.4176 61.0407 98.7559Z" fill="#FFA774"/>
<path d="M0.522694 74.1888C0.475001 70.5204 0.636653 69.1849 1.21007 68.5211C3.14369 66.2796 4.89261 71.6762 3.54125 75.7159C2.52197 78.7586 0.570181 77.7721 0.522694 74.1888Z" fill="#FFA774"/>
<path d="M27.9782 88.9424C27.6702 88.0923 29.5968 83.6697 30.9977 82.0112C31.5625 81.3429 31.9933 81.2719 32.8728 81.7085L34.0159 82.2736L32.6121 85.8631C30.8932 90.2635 28.9311 91.5677 27.9782 88.9424Z" fill="#FFA774"/>
<path d="M3.1112 88.7846C1.88109 87.8449 1.1772 80.763 2.25199 80.1299C3.8992 79.1585 4.75499 80.3919 5.30573 84.5273C5.87772 88.82 5.10943 90.3115 3.1112 88.7846Z" fill="#FFA774"/>
<path d="M55.1612 109.186C54.6349 108.294 56.943 101.908 58.1334 100.961C58.7959 100.434 60.5695 101.283 60.5882 102.137C60.6552 105.291 56.2443 111.02 55.1612 109.186Z" fill="#FFA774"/>
<path d="M24.4723 100.582C24.0039 99.7905 26.1655 92.9219 27.0067 92.5261C29.1397 91.5224 29.5327 93.3772 28.0561 97.4834C26.4997 101.812 25.6373 102.556 24.4723 100.582Z" fill="#FFA774"/>
<path d="M6.99517 100.921C4.86631 101.37 2.57852 92.5319 4.58028 91.5911C6.07178 90.8893 6.86812 91.8226 7.61499 95.1513C8.33762 98.3759 8.08944 100.691 6.99517 100.921Z" fill="#FFA774"/>
<path d="M50.0669 119.49C48.3069 118.656 48.5237 117.804 51.3604 114.403C53.9386 111.312 56.7903 110.804 55.7785 113.618C54.6074 116.875 51.4344 120.137 50.0669 119.49Z" fill="#FFA774"/>
<path d="M22.2265 112.997C20.7353 112.46 21.6709 105.76 23.4615 104.145C25.6386 102.181 26.5683 104.446 25.3578 108.764C24.345 112.372 23.5344 113.467 22.2265 112.997Z" fill="#FFA774"/>
<path d="M8.22092 108.111C6.85677 103.796 6.83696 103.615 7.69954 103.106C9.72017 101.917 13.3774 108.572 12.0641 111.048C11.0752 112.912 9.3149 111.565 8.22092 108.111Z" fill="#FFA774"/>
<path d="M40.6362 126.473C40.6843 125.213 41.2243 124.818 44.8518 123.382C48.2939 122.02 49.8569 122.324 49.4037 124.266C48.8224 126.756 40.5472 128.84 40.6362 126.473Z" fill="#FFA774"/>
<path d="M20.8329 120.155C21.0595 117.491 21.6092 115.571 22.2277 115.28C24.3218 114.294 25.2324 119.626 23.6988 123.89C23.405 124.707 23.5832 125.257 24.3698 125.973C25.8303 127.3 26.7494 129.554 26.1252 130.277C25.8464 130.6 25.6513 131.926 25.6911 133.224C25.8572 138.662 22.9266 137.788 22.2302 132.192C21.8346 129.018 21.4661 127.931 20.3851 126.761C19.0168 125.279 18.8586 123.436 20.0532 122.874C20.4225 122.7 20.6987 121.741 20.8329 120.155Z" fill="#FFA774"/>
<path d="M16.742 122.243C14.44 123.075 10.6012 114.659 12.8084 113.621C14.0878 113.019 14.8136 113.72 16.4471 117.138C18.0962 120.588 18.1614 121.729 16.742 122.243Z" fill="#FFA774"/>
<path d="M33.3569 131.471C29.1093 130.332 27.9079 128.627 30.674 127.663C32.6494 126.976 38.9688 129.559 38.6842 130.938C38.3813 132.409 37.2679 132.521 33.3569 131.471Z" fill="#FFA774"/>
<path d="M26.2556 148.083C24.2863 147.623 22.9904 139.767 24.747 138.94C26.341 138.19 26.9575 139.076 27.7346 143.231C28.4337 146.979 27.974 148.486 26.2556 148.083Z" fill="#FFA774"/>
<path d="M27.2179 155.684C26.3026 152.44 26.3094 150.771 27.2402 150.334C29.4581 149.291 32.4531 157.33 30.5187 159.133C29.2445 160.321 28.2261 159.258 27.2179 155.684Z" fill="#FFA774"/>
<path d="M32.1383 170.687C30.5544 169.322 29.2496 162.34 30.4707 161.765C32.123 160.987 35.4408 167.451 34.5963 169.8C34.2571 170.743 32.8096 171.266 32.1383 170.687Z" fill="#FFA774"/>
<path d="M34.2518 178.842C32.8296 174.619 32.8012 173.583 34.0983 173.202C35.8089 172.699 36.1141 173.067 37.3555 177.135C39.0627 182.73 36.106 184.354 34.2518 178.842Z" fill="#FFA774"/>
<path d="M39.1053 189.646C37.3496 186.028 37.2053 185.167 38.2028 184.268C39.4873 183.108 40.4701 183.956 42.094 187.622C44.6887 193.48 41.8865 195.377 39.1053 189.646Z" fill="#FFA774"/>
<path d="M58.2916 197.811C58.6153 196.911 59.2853 195.983 59.7814 195.75C61.3277 195.023 61.6362 195.945 62.567 204.078C63.86 215.372 64.5827 214.792 53.1205 211.665C44.3149 209.262 44.0044 208.334 51.1874 205.902L55.2548 204.525L56.4786 201.987C57.1525 200.591 57.9674 198.713 58.2916 197.811Z" fill="#FFA774"/>
<path d="M47.8294 199.06C44.5341 195.506 44.3611 195.167 45.2134 193.899C46.1481 192.504 47.6154 193.278 50.3846 196.625C53.9031 200.878 51.5745 203.099 47.8294 199.06Z" fill="#FFA774"/>
</svg>
