<svg width="293" height="220" viewBox="0 0 293 220" fill="none" xmlns="http://www.w3.org/2000/svg">
<path d="M291.104 54.5446L290.74 52.0876L290.36 52.1754C287.769 40.0225 281.799 28.8539 273.142 19.9616C264.485 11.0694 253.495 4.81705 241.442 1.92802C229.389 -0.96101 216.767 -0.368648 205.036 3.63657C193.305 7.6418 182.945 14.8962 175.154 24.5603C167.363 34.2245 162.459 45.9034 161.011 58.2459C159.563 70.5883 161.629 83.0897 166.97 94.3037C172.311 105.518 180.709 114.986 191.193 121.613C201.676 128.24 213.816 131.754 226.208 131.75C229.46 131.75 232.581 131.253 235.687 130.799C234.681 134.192 233.646 137.644 231.983 140.744C230.321 145.249 227.725 149.154 225.144 153.088C222.985 157.344 219.179 160.225 216.379 163.866C213.448 167.406 209.452 169.76 206.287 172.7C203.181 175.771 199.112 177.307 195.875 179.471C192.492 181.417 189.546 183.566 186.396 184.59L178.535 187.837L171.623 190.718L178.681 219.076L187.387 216.97C190.173 216.268 193.571 215.449 197.435 214.469C201.387 213.738 205.602 211.734 210.298 209.906C214.921 207.815 220.302 206.425 225.29 203.076C230.306 199.888 236.096 197.226 241.2 192.956C246.144 188.553 252.108 184.736 256.512 179.15C261.325 173.914 266.079 168.415 269.769 162.155C274.042 156.188 276.944 149.636 280.006 143.158C282.777 136.679 285.008 130.053 286.831 123.618C290.287 110.719 291.833 98.4635 292.431 87.9774C292.927 77.4766 292.635 68.7455 292.023 62.4275C291.818 59.789 291.511 57.1594 291.104 54.5446ZM130.687 54.5446L130.323 52.0876L129.944 52.1754C127.352 40.0225 121.383 28.8539 112.726 19.9616C104.069 11.0694 93.078 4.81705 81.0254 1.92802C68.9727 -0.96101 56.3506 -0.368648 44.6196 3.63657C32.8887 7.6418 22.5282 14.8962 14.7371 24.5603C6.94598 34.2245 2.0426 45.9034 0.594297 58.2459C-0.854001 70.5883 1.21198 83.0897 6.55321 94.3037C11.8944 105.518 20.2926 114.986 30.776 121.613C41.2593 128.24 53.3994 131.754 65.7916 131.75C69.0437 131.75 72.1646 131.253 75.2708 130.799C74.2646 134.192 73.2291 137.644 71.5666 140.744C69.9041 145.249 67.3083 149.154 64.7271 153.088C62.5687 157.344 58.7625 160.225 55.9625 163.866C53.0312 167.406 49.0354 169.76 45.8708 172.7C42.7646 175.771 38.6958 177.307 35.4583 179.471C32.075 181.417 29.1291 183.566 25.9791 184.59L18.1187 187.837C13.7291 189.636 11.2208 190.689 11.2208 190.689L18.2791 219.047L26.9854 216.941C29.7708 216.239 33.1687 215.42 37.0333 214.44C40.9854 213.708 45.2 211.705 49.8958 209.877C54.5187 207.785 59.9 206.396 64.8875 203.047C69.9041 199.859 75.6937 197.197 80.7979 192.926C85.7416 188.524 91.7062 184.707 96.1104 179.12C100.923 173.885 105.677 168.386 109.367 162.126C113.64 156.159 116.542 149.607 119.604 143.128C122.375 136.649 124.606 130.024 126.429 123.589C129.885 110.69 131.431 98.4342 132.029 87.9481C132.525 77.4474 132.233 68.7163 131.621 62.3983C131.403 59.7701 131.092 57.1505 130.687 54.5446Z" fill="#0F9D58"/>
</svg>
