<svg width="671" height="666" viewBox="0 0 671 666" fill="none" xmlns="http://www.w3.org/2000/svg">
<path fill-rule="evenodd" clip-rule="evenodd" d="M101.047 1.26431C100.685 1.49615 100.205 2.66207 99.9815 3.85655C99.7564 5.05103 99.0928 6.32783 98.5064 6.69407C96.3006 8.07167 97.1574 9.84743 100.141 10.0826C101.628 10.2002 96.6736 10.343 89.1304 10.3985C71.2468 10.5329 72.1674 10.0978 57.1112 25.4899C49.904 32.8567 50.3694 32.6921 36.7144 32.6938C11.4657 32.6971 0.706933 33.2918 0.706933 34.6846C0.706933 36.5762 44.434 37.6598 49.4437 35.8925C51.6966 35.0962 67.833 19.8418 68.5705 17.8106C68.757 17.2915 70.1447 16.0114 71.6516 14.9647L74.3934 13.0613L88.2433 12.8916C97.8143 12.7723 101.979 12.905 101.724 13.3183C101.52 13.6459 100.474 13.9147 99.3968 13.9147C97.8176 13.9147 97.438 14.1365 97.438 15.0538C97.438 15.7946 97.8176 16.1911 98.5266 16.1911C99.3481 16.1911 99.706 16.7354 99.9916 18.4222C100.712 22.6826 103.252 24.707 108.534 25.2245C112.711 25.6344 112.452 25.6663 105.405 25.626C96.8936 25.5756 95.8067 25.925 91.9192 29.952C88.2248 33.7824 88.3425 32.4384 88.2568 71.7941C88.1845 105.755 87.531 147.248 87.3042 132.405C87.2085 126.211 87.069 125.321 86.0576 124.455C85.4327 123.919 84.9203 123.202 84.9203 122.859C84.9203 120.41 71.0737 117.194 67.6079 118.839C66.5512 119.341 65.0526 119.751 64.2781 119.751C63.502 119.751 62.5444 120.141 62.1479 120.618C61.7531 121.095 61.2961 121.354 61.1348 121.191C60.8005 120.857 56.4897 125.48 56.4779 126.186C56.4729 126.439 56.1738 126.463 55.8126 126.24C55.4145 125.994 55.3103 126.083 55.5472 126.468C55.7639 126.817 55.6749 127.624 55.3506 128.262C55.028 128.902 54.5073 129.932 54.1948 130.554C52.503 133.914 54.183 144.622 56.8727 147.633C61.0979 152.358 61.5851 152.753 63.1895 152.753C64.1118 152.753 65.1853 153.138 65.5734 153.607C66.662 154.919 67.119 154.648 67.7289 152.327C68.127 150.809 68.3504 157.805 68.4966 176.51L68.7033 202.827H52.9516L37.1999 202.826L36.8118 201.546C35.7568 198.065 32.6941 196.786 30.2161 198.794C28.3967 200.267 28.2237 207.11 29.9574 209.027C31.3165 210.528 33.8483 210.666 33.6282 209.228C33.5442 208.68 33.7945 207.656 34.1826 206.952L34.8882 205.672L51.7957 205.67L68.7033 205.668L68.5151 210.646C68.4126 213.383 68.0615 215.945 67.7356 216.338C66.6368 217.66 53.2809 217.306 51.7873 215.913C50.272 214.502 50.1409 214.503 48.2963 215.955C46.4197 217.43 46.3962 218.752 48.214 220.461C49.6369 221.796 52.4862 221.457 52.4862 219.952C52.4862 219.648 55.9504 219.333 60.4393 219.229C70.7831 218.987 70.9797 218.838 70.9797 211.206C70.9797 204.927 70.5361 205.24 79.5628 205.159L85.8695 205.102V206.878C85.8695 208.052 86.3012 208.98 87.1463 209.616C88.2752 210.468 88.3223 210.665 87.5495 211.305C86.3516 212.299 85.6007 211.684 85.1639 209.351C84.7355 207.071 82.6439 206.433 82.6439 208.581C82.6439 209.789 84.8497 214.206 85.4512 214.208C85.6292 214.208 85.814 214.907 85.8644 215.762C85.9148 216.634 86.4776 217.665 87.1446 218.107C88.5474 219.039 88.7137 220.924 87.4369 221.415C85.263 222.248 85.5688 227.226 87.8401 227.982C88.245 228.118 87.8956 228.819 86.9581 229.756L85.4075 231.307L85.5906 239.804C85.7485 247.134 85.9115 248.401 86.7784 249.036C87.6032 249.639 81.9551 249.795 55.0549 249.911C26.6512 250.034 22.3302 249.941 22.3302 249.219C22.3302 247.116 18.7014 246.902 18.0445 248.969C17.6397 250.245 16.6401 250.425 16.6401 249.221C16.6401 247.399 14.2511 246.939 12.9071 248.503L11.6622 249.95L10.545 248.453C9.37237 246.882 6.40213 247.732 6.39373 249.641C6.39205 250.025 5.77549 249.57 5.02285 248.631L3.65365 246.924L2.18029 248.303C0.720373 249.671 0.0853334 252.9 1.27645 252.9C1.58893 252.9 1.84429 253.256 1.84429 253.691C1.84429 255.794 4.97413 255.248 5.52685 253.049L5.89645 251.573L7.01533 253.414C8.36605 255.633 9.76045 255.558 10.8894 253.202C11.6253 251.667 11.7261 251.623 12.1108 252.661C13.1927 255.588 15.6253 255.796 16.7157 253.056L17.344 251.477L17.8765 252.992C18.7266 255.413 22.3302 255.552 22.3302 253.164C22.3302 252.441 26.962 252.33 57.254 252.33C94.8743 252.33 95.1565 252.352 92.0233 255.077C91.2472 255.752 90.6104 256.614 90.6104 256.991C90.6104 257.367 89.7654 256.856 88.7339 255.857C85.4058 252.629 84.9203 253.158 84.9203 260.011C84.9203 266.872 85.5452 267.538 88.8364 264.171C90.1165 262.862 90.6104 262.615 90.6104 263.286C90.6104 264.796 92.9221 265.987 95.8588 265.987C98.5602 265.987 99.8992 264.339 97.8647 263.519C97.4413 263.346 97.5556 263.213 98.1503 263.186C98.698 263.161 99.1449 262.765 99.1449 262.303C99.1449 261.607 100.628 261.438 107.824 261.306C116.069 261.157 116.501 261.093 116.501 260.011C116.501 258.924 116.069 258.867 106.685 258.718C97.3405 258.57 96.8701 258.509 96.8701 257.437C96.8701 256.361 97.2884 256.314 106.827 256.314C116.219 256.314 116.785 256.251 116.785 255.237C116.785 253.595 115.621 253.416 105.52 253.498C99.4304 253.547 95.9612 253.357 95.5564 252.952C95.1078 252.503 99.3868 252.33 110.98 252.33C124.573 252.33 127.028 252.456 127.028 253.15C127.028 254.392 126.107 254.701 125.301 253.73C124.217 252.423 120.325 253.039 119.144 254.706C117.689 256.76 117.245 259.791 116.832 270.538C116.622 276.015 116.397 280.049 116.333 279.501C116.225 278.579 115.046 278.505 100.529 278.505H84.8413L85.0228 279.785C85.2025 281.053 85.2983 281.067 95.8016 281.22L106.399 281.374L106.775 284.207C106.982 285.766 107.399 287.039 107.701 287.039C108.002 287.039 108.25 287.372 108.25 287.778C108.25 290.399 115.792 294.653 116.382 292.363C116.531 291.783 116.681 299.374 116.714 309.232C116.746 319.09 117.03 329.587 117.344 332.56C117.658 335.534 118.305 341.861 118.781 346.619C134.773 506.447 304.794 599.131 439.647 521.533C442.424 519.934 444.79 518.627 444.901 518.627C446.103 518.627 444.953 533.335 443.725 533.643C440.208 534.527 437.367 538.992 439.745 539.904C441.188 540.457 452.133 540.284 453.069 539.693C454.453 538.817 452.259 535.355 449.568 534.167L447.379 533.201V525.087V516.972L454.065 512.433C462.433 506.753 472.594 498.643 480.162 491.606C485.54 486.605 486.158 486.193 488.303 486.193C490.669 486.193 491.593 484.565 490.094 483.035C489.765 482.699 491.284 480.565 494.128 477.373C496.638 474.557 500.766 469.628 503.301 466.419C505.836 463.212 508.077 460.588 508.28 460.588C508.776 460.588 509.397 482.008 509.399 499.126L509.401 512.91L507.98 513.842C506.16 515.034 506.182 516.057 508.058 517.797L509.562 519.19L508.058 520.372C506.16 521.866 506.163 522.787 508.072 524.289L509.589 525.481L508.072 527.064C506.169 529.051 506.175 529.624 508.117 531.151L509.678 532.38L508.117 533.517C505.559 535.38 507.027 538.542 510.451 538.542C513.48 538.542 514.915 535.605 512.816 533.705C511.323 532.354 511.38 531.825 513.1 531.041C514.861 530.239 514.861 530.095 513.075 527.464C511.64 525.349 512.07 523.847 514.133 523.766C514.933 523.734 513.865 521.298 512.6 520.268L511.393 519.284L512.988 517.612L514.584 515.941L513.13 514.214C511.852 512.695 511.677 511.971 511.677 508.161V503.833H518.73C523.983 503.833 525.853 503.645 526.065 503.094C526.848 501.054 523.231 495.221 520.682 494.412C519.834 494.143 519.647 493.488 519.661 490.848C519.674 488.353 519.812 487.846 520.264 488.622C520.586 489.175 520.805 490.07 520.751 490.613C520.558 492.518 520.798 493.076 522.631 494.983C523.647 496.039 525.037 497.567 525.717 498.376C527.239 500.189 528.158 500.258 528.245 498.569C528.523 493.271 529.242 505.767 529.586 521.841L530.001 541.272L528.521 543.797C526.7 546.905 526.658 548.615 528.341 551.118C531.829 556.306 536.274 550.09 533.368 544.089C532.313 541.908 532.161 540.586 532.161 533.525V525.455H536.205C539.853 525.455 540.205 525.552 539.789 526.451C539.537 526.998 539.186 537.176 539.013 549.069C538.606 576.856 538.673 576.666 529.19 576.666C524.575 576.666 524.195 576.752 524.195 577.803C524.195 578.858 524.575 578.942 529.371 578.942C535.831 578.942 537.195 578.227 539.654 573.558L541.465 570.122L541.887 548.499C542.389 522.832 542.033 525.455 545.025 525.455C547.74 525.455 548.689 526.234 547.046 527.113C544.096 528.692 544.111 528.455 544.111 572.038C544.111 607.746 544.215 612.694 545.012 614.343C546.84 618.14 550.648 619.393 550.265 616.072C550.136 614.945 549.766 614.505 548.948 614.505C546.44 614.505 546.428 614.305 546.408 572.293C546.394 547.669 546.599 531.797 546.942 530.898C547.987 528.149 551.362 529.423 550.991 532.425C550.838 533.655 551.445 533.687 553.089 532.536L554.353 531.649V571.428C554.353 612.778 554.245 614.789 552.021 614.789C551.246 614.789 550.939 615.193 550.939 616.212C550.939 617.86 551.843 618.019 553.718 616.707C556.491 614.763 556.626 613.55 556.674 590.198C556.7 578.217 556.847 568.735 557.005 569.126C558.514 572.864 564.775 565.806 566.333 558.611L567.1 555.068L577.654 554.913C587.778 554.766 588.21 554.712 588.21 553.621C588.21 552.198 557.313 551.484 557.079 552.901C557.014 553.297 556.794 548.499 556.59 542.241C556.049 525.539 555.125 522.493 550.497 522.168C549.224 522.079 548.019 522.271 547.821 522.592C547.621 522.914 546.532 523.178 545.4 523.178H543.344L544.679 521.757C546.682 519.625 565.163 519.497 565.165 521.614C565.167 522.832 564.984 522.884 561.405 522.701C557.415 522.496 556.355 522.938 556.973 524.549C557.294 525.387 557.963 525.513 561.261 525.355L565.167 525.171L565.165 526.878V528.584L561.608 528.524C557.323 528.452 556.629 528.667 556.629 530.068C556.629 531.029 557.089 531.145 560.896 531.145H565.165V532.852V534.558H561.141C557.331 534.558 557.128 534.624 557.301 535.8C557.469 536.951 557.76 537.03 561.323 536.899L565.165 536.756V538.644V540.534H561.325C557.773 540.534 557.469 540.63 557.301 541.814C557.126 543.037 557.296 543.095 561.141 543.095C564.234 543.095 565.165 543.281 565.165 543.901C565.165 544.344 565.296 545.048 565.456 545.465C565.681 546.05 565.089 546.177 562.874 546.024C558.964 545.754 557.198 546.263 557.198 547.657C557.198 548.691 557.593 548.785 561.936 548.785C566.254 548.785 566.791 548.911 568.009 550.206C569.758 552.069 570.835 552.017 570.932 550.065C570.998 548.723 571.045 548.682 571.257 549.779C571.557 551.345 572.399 551.384 574.269 549.922C575.475 548.978 576.614 548.808 581.774 548.796C587.968 548.783 589.224 548.358 587.874 546.732C587.304 546.045 586.063 545.902 581.849 546.045L576.542 546.223L576.544 544.659V543.095H582.173C586.908 543.095 587.86 542.943 588.168 542.144C588.764 540.59 587.363 540.2 581.807 540.371L576.544 540.534V538.685C576.544 536.958 576.673 536.835 578.496 536.835C580.66 536.835 582.005 535.77 583.143 533.161C583.576 532.166 583.907 531.842 583.919 532.398C583.981 535.073 586.656 537.762 587.958 536.46C588.685 535.734 588.74 523.766 588.02 523.045C587.081 522.106 584.631 524.015 584.008 526.169C583.716 527.185 583.452 527.586 583.423 527.062C583.349 525.683 580.54 522.541 579.764 522.972C579.401 523.171 579.689 522.725 580.401 521.977L581.698 520.618H605.295C618.273 520.618 628.893 520.789 628.893 520.997C628.893 521.208 629.025 521.72 629.185 522.137C629.423 522.755 627.54 522.862 618.97 522.718C611.921 522.599 608.069 522.751 607.263 523.183C606.444 523.622 605.838 523.642 605.366 523.25C604.963 522.914 601.413 522.698 596.917 522.733L589.162 522.792L589.092 537.171C588.984 558.934 589.169 559.028 598.107 541.801C599.605 538.913 602.051 534.199 603.545 531.324L606.26 526.1L607.812 529.05C608.665 530.671 611.111 535.326 613.247 539.395C615.382 543.464 617.714 547.726 618.429 548.869C619.552 550.66 619.649 551.232 619.145 553.057C618.695 554.692 618.765 555.795 619.461 557.917C620.163 560.066 620.358 563.27 620.358 572.647V584.631H606.811C596.852 584.631 593.014 584.821 592.326 585.343C591.351 586.082 583.942 598.687 583.942 599.606C583.942 599.895 583.072 601.572 582.01 603.334C580.949 605.097 578.778 609.098 577.187 612.228L574.292 617.918L574.422 602.555L574.553 587.193L579.816 587.028C586.131 586.832 586.034 586.543 582.052 593.699C580.386 596.693 578.739 599.781 578.392 600.564L577.76 601.987L577.74 600.28C577.728 599.341 578.094 598.076 578.555 597.468C580.255 595.218 578.912 590.891 576.512 590.891C575.482 590.891 575.406 591.332 575.406 597.325C575.406 606.301 577.458 608.418 580.016 602.088C580.418 601.093 580.91 600.151 581.107 599.994C582.519 598.879 587.496 587.544 587.161 586.208C586.562 583.823 575.935 583.556 573.557 585.867L571.993 587.389V603.541C571.993 627.768 571.487 627.849 585.32 601.417C589.653 593.14 591.968 589.032 592.935 587.904C594.353 586.254 632.558 586.388 633.445 588.046C634.196 589.449 635.473 589.515 636.244 588.187C636.607 587.568 636.832 587.473 636.842 587.94C636.871 589.201 635.728 590.891 634.848 590.891C634.389 590.891 634.015 591.403 634.015 592.03C634.015 594.304 637.148 592.839 638.331 590.01C640.095 585.787 638.813 580.028 635.744 578.385C633.837 577.365 633.561 579.245 635.371 580.921C637.187 582.605 637.38 583.816 635.666 582.788C634.63 582.165 634.361 582.239 633.607 583.351C632.815 584.518 632.288 584.631 627.686 584.631H622.634V572.967C622.634 566.551 622.843 561.302 623.098 561.302C623.354 561.302 624.138 560.278 624.842 559.026L626.12 556.75H638.191C648.196 556.75 650.479 556.598 651.527 555.864L652.792 554.979V563.214C652.792 573.704 652.995 573.252 648.278 573.252C645.039 573.252 644.276 573.447 643.288 574.532C640.876 577.182 640.842 577.526 640.842 600.105V621.913L633.872 621.455C630.038 621.203 624.597 621.142 621.781 621.322L616.66 621.646L615.763 619.498C613.391 613.811 608.091 616.04 608.181 622.686C608.267 629.05 612.039 631.716 614.932 627.459C615.726 626.292 616.375 625.075 616.375 624.758C616.376 624.385 620.751 624.144 628.609 624.084L640.842 623.99V634.752V645.516H639.182C637.897 645.516 637.242 645.968 636.291 647.507C635.167 649.324 633.969 650.448 634.925 648.787C635.317 648.11 634.566 648.713 631.028 651.913C630.166 652.691 629.462 653.618 629.462 653.975C629.462 654.329 629.207 654.62 628.893 654.62C628.58 654.62 628.325 655.132 628.325 655.757C628.325 656.39 627.945 656.896 627.471 656.896C626.782 656.896 626.618 657.781 626.618 661.447V666H644.826H663.033V662.87C663.033 661.15 662.81 659.74 662.538 659.74C662.264 659.74 661.878 658.717 661.678 657.466C661.478 656.212 661.046 655.189 660.717 655.189C660.389 655.189 660.28 654.932 660.473 654.62C660.666 654.307 660.55 654.05 660.214 654.05C659.88 654.05 658.346 652.787 656.809 651.24C653.51 647.923 652.191 647.483 651.591 649.499C651.359 650.282 651.312 638.886 651.488 624.178C651.665 609.47 651.875 597.354 651.956 597.256C652.038 597.159 653.121 597.159 654.366 597.256L656.628 597.434L655.833 600.52C654.786 604.598 656.174 611.375 658.056 611.375C658.889 611.375 659.109 611.089 658.897 610.279C658.686 609.47 658.839 609.271 659.485 609.52C660.211 609.799 660.275 609.574 659.862 608.196C659.267 606.207 659.292 601.488 659.91 599.19C660.293 597.77 660.218 597.585 659.39 597.903C658.817 598.123 658.565 598.046 658.77 597.713C659.223 596.981 663.999 596.981 664.453 597.713C664.656 598.042 664.409 598.125 663.853 597.911C663.045 597.602 662.965 597.817 663.307 599.38C663.687 601.107 663.645 601.169 662.565 600.493C660.807 599.396 659.62 600.707 659.62 603.742C659.62 606.617 661.221 608.092 662.86 606.731C663.65 606.076 663.702 606.21 663.329 607.916C662.981 609.497 663.059 609.78 663.759 609.512C664.383 609.271 664.535 609.478 664.325 610.279C664.112 611.096 664.334 611.375 665.199 611.375C666.966 611.375 667.763 608.171 667.477 602.204C667.212 596.638 667.628 595.798 668.72 599.699C670.289 605.303 671.002 604.121 670.982 595.939C670.963 587.927 670.251 586.927 668.69 592.722L668.11 594.874H658.786H649.461L648.281 596.372C647.184 597.767 647.099 598.64 647.062 608.749C647.04 614.731 646.801 620.138 646.532 620.764C646.249 621.425 646.027 612.312 646.003 599L645.963 576.096H649.357C652.639 576.096 652.799 576.026 654.193 573.973L655.636 571.849V552.919V533.991H662.466C669.218 533.991 669.293 534.004 669.293 535.304C669.293 536.027 669.669 537.114 670.128 537.722C670.879 538.715 670.963 538.192 670.961 532.568C670.96 526.857 670.889 526.432 670.147 527.731C669.7 528.514 669.325 529.582 669.313 530.106C669.295 530.941 668.315 531.081 661.345 531.244C650.759 531.491 651.421 530.698 651.179 543.397L650.991 553.336L638.662 553.314L626.332 553.292L625.173 551.464C624.345 550.162 623.587 549.643 622.535 549.655C620.97 549.673 621.092 549.877 611.609 531.59C610.031 528.549 608.346 525.955 607.864 525.824C607.382 525.693 614.287 525.557 623.209 525.52C639.093 525.456 639.446 525.48 640.175 526.646C640.901 527.808 640.948 527.812 642.102 526.788C643.263 525.759 643.273 525.76 642.648 526.953C642.299 527.62 641.62 528.316 641.143 528.499C639.918 528.969 640.058 530.575 641.323 530.575C643.772 530.575 645.698 526.207 644.871 522.526L644.377 520.334H647.744C650.781 520.334 651.173 520.472 651.757 521.757C652.629 523.67 654.546 523.605 655.751 521.617L656.698 520.057L657.306 521.658C658.049 523.608 660.171 523.585 661.034 521.614C661.758 519.966 662.131 520.001 662.948 521.796C663.773 523.603 665.896 523.501 666.724 521.614C667.43 520.008 667.741 520.006 668.446 521.611C669.782 524.646 671 523.514 671 519.237C671 514.913 669.256 513.175 668.389 516.635C667.932 518.454 667.24 518.454 666.783 516.635C666.284 514.651 663.917 514.681 662.867 516.687L662.094 518.162L661.128 516.687C659.897 514.807 658.165 514.8 657.185 516.672L656.421 518.13L655.757 516.672C654.887 514.763 652.396 514.644 651.719 516.477C650.959 518.53 647.052 517.967 644.611 515.452C641.978 512.742 636.859 513.92 636.859 517.236C636.859 517.532 635.707 517.774 634.299 517.774H631.738V508.883C631.738 503.993 631.591 499.255 631.411 498.356L631.083 496.72L644.98 496.881C663.017 497.089 661.481 498.166 661.997 484.965C662.516 471.653 662.991 469.134 664.559 471.374C665.585 472.839 666.728 472.857 667.732 471.422C668.502 470.325 668.529 470.327 669.614 471.565L670.716 472.822L670.887 469.2C671.077 465.161 670.728 464.324 669.532 465.961C668.757 467.017 668.693 467.021 667.974 466.04C667 464.707 665.233 465.075 664.379 466.789L663.704 468.145L663.511 466.807C663.385 465.934 662.828 465.356 661.901 465.139C660.903 464.904 660.702 464.672 661.219 464.353C661.76 464.019 661.93 462.137 661.861 457.186C661.775 451.046 661.871 450.37 662.97 449.272C663.946 448.296 664.179 447.348 664.208 444.228C664.235 441.324 664.371 440.702 664.764 441.681C666.13 445.082 669.293 443.004 669.293 438.706C669.293 434.965 665.987 432.791 664.71 435.694C664.305 436.614 664.235 435.759 664.46 432.651C664.802 427.917 664.502 426.447 663.188 426.447C662.451 426.447 662.439 426.311 663.106 425.508C663.692 424.804 663.934 421.876 664.073 413.842C664.245 403.996 664.665 401.326 665.585 404.227C666.664 407.624 670.825 405.195 670.227 401.516C669.646 397.931 667.017 396.693 665.775 399.419C664.969 401.188 664.172 401.259 664.169 399.562C664.162 396.804 662.862 393.857 660.453 391.147C656.471 386.663 656.206 385.85 656.206 378.144C656.206 374.209 656.446 371.172 656.775 370.968C657.74 370.372 657.404 367.501 656.246 366.454C653.936 364.363 650.333 368.282 652.433 370.601C653.184 371.432 653.36 372.949 653.36 378.591C653.36 386.008 653.53 386.646 656.261 389.571C658.662 392.143 660.641 395.302 661.063 397.239C661.345 398.529 661.054 398.284 659.606 396.006C656.92 391.777 656.826 391.738 649.32 391.738C642.731 391.738 642.635 391.757 641.319 393.316L639.989 394.893L639.881 355.741C639.776 317.168 639.757 316.562 638.589 314.675C636.752 311.701 634.267 311.202 632.096 313.375L630.798 314.672L629.795 313.341C628.646 311.817 626.448 311.812 626.159 313.333C626.033 313.991 626.609 314.571 627.938 315.127C631.974 316.812 630.907 323.13 626.646 322.773C624.775 322.615 624.587 322.425 624.089 320.184C623.3 316.622 621.193 316.62 621.67 320.184C622.02 322.788 623.856 324.878 626.342 325.501C627.881 325.887 631.975 323.732 631.418 322.83C631.238 322.537 632.019 322.742 633.155 323.283C634.947 324.138 635.288 324.159 635.747 323.436C636.592 322.097 636.394 321.741 634.596 321.382C631.565 320.775 631.51 315.468 634.531 315.019C637.541 314.573 637.429 312.894 637.429 358.195C637.429 404.029 637.576 401.98 634.258 401.98H632.876V369.225C632.876 346.078 632.689 336.103 632.236 335.226C628.688 328.335 620.422 331.406 621.677 339.148C621.867 340.315 621.779 340.986 621.462 340.791C621.168 340.609 620.928 339.964 620.928 339.358C620.928 338.306 616.714 335.749 615.458 336.04C615.18 336.103 614.487 335.952 613.919 335.705C612.556 335.111 606.491 335.752 606.238 336.517C606.127 336.844 605.458 337.113 604.751 337.113C602.364 337.113 601.023 338.924 600.909 342.301C600.574 352.29 600.017 321.65 599.951 289.628L599.874 252.102L598.081 249.143C594.958 243.991 594.251 243.796 578.734 243.796C563.566 243.796 562.504 243.542 560.17 239.377C558.919 237.146 558.914 237.076 560.009 237.363C561.241 237.684 564.596 234.826 564.596 233.454C564.597 232.254 575.092 232.523 576.458 233.76C577.767 234.944 579.863 234.954 581.16 233.78C582.745 232.345 598.281 232.61 600.712 234.112C602.478 235.204 604.995 238.178 604.995 239.174C604.995 239.475 606.236 241.086 607.753 242.754C609.27 244.422 612.864 248.601 615.736 252.041C623.889 261.802 623.409 261.71 659.813 260.49L671 260.115V258.748V257.38L663.746 257.342C654.711 257.293 623.506 256.587 623.436 256.429C623.073 255.623 610.169 240.422 607.84 238.059C606.118 236.313 603.99 234.079 603.109 233.094L601.51 231.303L592.015 231.134C584.557 230.999 585.636 230.935 597.045 230.835C613.62 230.69 612.729 230.463 616.306 235.72C617.519 237.501 619.888 240.542 621.569 242.475C623.249 244.409 625.63 247.193 626.858 248.661C628.086 250.128 630.109 252.066 631.354 252.967L633.617 254.607H646.238C653.18 254.607 659.037 254.43 659.253 254.215C659.469 253.998 662.2 253.891 665.322 253.975C670.993 254.128 671 254.126 671 252.749V251.371L662.039 250.998C657.11 250.795 648.491 250.627 642.889 250.625L632.701 250.623L630.44 248.204C629.195 246.875 627.162 244.506 625.922 242.942C614.409 228.417 614.438 228.432 597.056 228.432C584.935 228.432 582.803 228.308 582.803 227.601C582.803 226.255 580.445 224.449 578.686 224.449C576.297 224.449 573.827 227.347 574.202 229.712C574.239 229.948 572.092 230.139 569.432 230.139C566.771 230.139 564.596 229.902 564.596 229.613C564.596 228.415 561.582 225.586 560.305 225.586C559.068 225.586 558.949 225.326 558.791 222.315C558.643 219.48 558.469 219.043 557.482 219.043C556.449 219.043 556.33 219.478 556.179 223.757C556.088 226.349 555.796 228.336 555.53 228.172C555.265 228.007 554.888 228.719 554.694 229.756C554.29 231.908 554.836 235.381 555.513 234.962C555.762 234.808 556.394 235.972 556.918 237.55C559.443 245.152 561.721 246.042 578.677 246.059L591.904 246.071L594.17 248.118C595.494 249.315 596.677 251.032 597.014 252.245C597.693 254.691 597.708 346.679 597.03 349.347C596.437 351.675 596.416 351.218 596.458 335.833C596.495 322.615 596.472 322.319 595.34 322.319C594.216 322.319 594.184 322.637 594.18 334.126C594.179 340.66 593.91 346.899 593.576 348.097C592.615 351.559 587.996 357.003 586.005 357.016C584.786 357.024 584.51 356.848 584.917 356.317C585.26 355.869 585.297 347.709 585.014 334.267C584.769 322.532 584.572 303.264 584.577 291.449L584.588 269.97H587.032C588.616 269.97 589.989 269.569 590.924 268.831C591.721 268.206 592.814 267.694 593.355 267.694C596.143 267.694 598.12 262.751 595.748 261.711C594.773 261.285 594.397 260.537 594.172 258.582C593.453 252.325 591.069 250.644 582.913 250.632C579.685 250.627 577.185 250.398 577.355 250.123C577.941 249.175 574.077 248.916 559.262 248.908C540.768 248.898 542.247 249.315 540.362 243.594C539.52 241.044 538.1 237.096 537.205 234.818C535.8 231.248 535.575 229.901 535.575 225.037C535.575 221.934 535.343 219.251 535.058 219.075C533.848 218.327 532.731 219.495 532.716 221.522C532.704 223.342 532.16 222.517 528.266 214.776C468.441 95.85 322.494 55.8576 216.406 129.317C213.094 131.612 211.239 132.613 211.554 131.938C212.767 129.337 212.547 119.182 211.276 119.182C210.169 119.182 210.102 119.503 210.102 124.785C210.102 134.097 209.333 134.419 186.488 134.655C166.965 134.855 165.431 135.189 162.187 139.952L160.636 142.226L160.618 163.156L160.599 184.085L157.553 188.477C155.88 190.893 152.888 195.558 150.907 198.844C148.925 202.13 147.247 204.9 147.176 205.003C147.105 205.104 146.237 204.768 145.247 204.255C143.062 203.125 140.468 203.551 139.288 205.235C138.304 206.641 139.03 208.487 140.74 208.936C142.706 209.45 142.207 214.379 139.631 219.854L137.442 224.513L136.503 223.078C135.986 222.29 135.562 221.519 135.562 221.366C135.562 221.213 134.448 219.476 133.086 217.506C129.224 211.918 129.303 212.571 129.303 186.241V162.427H127.864H126.425L126.583 187.633L126.742 212.838L129.25 216.795C130.631 218.97 132.757 222.22 133.976 224.014L136.194 227.278L133.088 235.394C131.381 239.858 129.528 244.984 128.97 246.783L127.957 250.054H109.631C87.2505 250.054 88.7171 250.581 88.4214 242.423C88.24 237.398 88.3088 236.967 89.2916 236.967C92.5609 236.967 94.0696 232.894 91.7243 230.398L90.5617 229.16L92.2871 228.444C96.0251 226.897 98.0075 223.757 98.0075 219.387C98.0075 216.35 98.2091 215.389 98.9012 215.123C100.527 214.5 99.6287 212.279 97.4632 211.58C95.427 210.922 95.4304 210.93 95.6504 206.668C95.8084 203.612 98.0075 205.115 98.0075 208.279C98.0075 209.275 98.3216 209.655 99.1449 209.655C100.889 209.655 100.717 206.055 98.8878 204.223C97.1541 202.49 96.0385 202.461 94.4257 204.108L93.1708 205.388L92.0334 204.227C90.9196 203.093 90.8977 202.407 91.0472 172.505L91.1984 141.942L97.0213 141.944L102.844 141.946L109.028 148.253C117.919 157.321 116.345 156.732 131.722 156.735L144.666 156.737V165.486C144.666 172.571 144.503 174.372 143.813 174.944C141.316 177.016 144.417 181.001 147.139 179.218C149.148 177.901 149.442 176.68 148.097 175.247C146.976 174.054 146.943 173.343 146.943 150.868V127.718H164C180.044 127.718 181.166 127.785 182.918 128.854C185.273 130.288 187.131 130.292 189.475 128.862C194.434 125.838 188.66 121.03 183.229 123.659C180.959 124.758 179.644 124.848 163.869 124.998L146.943 125.156V118.508C146.943 109.596 146.262 110.661 162.031 94.8353C180.301 76.4947 180.381 77.6438 160.811 77.6438H147.46L146.064 79.0416C145.294 79.8093 144.659 80.898 144.649 81.4591C144.379 97.3637 144.785 101.544 146.605 101.544C147.776 101.544 162.874 86.2421 162.874 85.056C162.874 83.5423 160.498 83.0064 154.766 83.2265C149.163 83.4415 148.392 84.2681 151.185 87.0585C152.994 88.8679 154.106 88.8209 155.961 86.8569C157.024 85.7297 157.826 85.3517 158.679 85.5768C159.732 85.854 159.054 86.7309 153.416 92.3976L146.943 98.8992V90.0926C146.943 84.001 147.153 81.0761 147.625 80.604C148.376 79.853 173.117 79.5792 173.117 80.3201C173.117 80.5402 167.109 86.6822 159.764 93.9667C143.804 109.801 144.666 108.413 144.666 118.261C144.666 125.433 144.592 125.957 143.529 126.295C142.902 126.493 142.39 126.848 142.39 127.081C142.39 127.316 140.79 128.341 138.835 129.358C136.878 130.376 134.253 131.941 133.002 132.839C131.75 133.736 129.061 135.446 127.028 136.64L123.328 138.813L113.254 139.001L103.179 139.189L100.333 136.528C95.4018 131.915 95.1633 130.999 95.1633 116.726V104.388H93.7403H92.3173V117.22C92.3173 131.911 92.3425 132.009 97.0868 136.368L100 139.046L95.59 139.071L91.18 139.097V87.2988C91.18 30.3787 91.0204 32.9626 94.671 30.3586C96.566 29.0078 96.7509 28.991 113.941 28.7088C123.485 28.5526 131.678 28.1813 132.148 27.8822C133.094 27.2791 133.323 27.1061 136.009 24.9523C139.386 22.2458 139.769 20.8716 140.013 10.6438C140.228 1.55663 140.211 1.39703 139.035 1.39703C137.876 1.39703 137.837 1.65407 137.807 9.50471C137.756 22.9817 136.174 25.0498 125.558 25.5286C119.938 25.7822 119.933 25.7822 124.182 25.2648C128.419 24.749 131.009 23.8519 131.009 22.901C131.009 22.3046 133.336 18.9194 134.139 18.3449C135.225 17.5704 134.768 5.93807 133.546 3.24671L132.449 0.827515L117.077 0.837595C108.623 0.840955 101.409 1.03415 101.047 1.26431ZM98.2175 35.1785C96.0587 37.3373 95.7311 37.9841 95.7311 40.0942C95.7311 42.6662 94.6861 44.0203 92.6735 44.0539C91.778 44.0707 91.6638 44.3698 91.9628 45.9221C92.3879 48.1195 94.1721 49.7626 96.1309 49.7626C96.9088 49.7626 98.194 50.275 98.9903 50.9016C101.277 52.6992 166.543 52.6774 169.455 50.8781C171.397 49.6786 173.596 45.3089 172.86 44.1161C171.991 42.7133 170.273 43.4575 170.273 45.2366C170.273 46.3186 169.747 47.4946 168.875 48.3665L167.479 49.7626L134.307 49.7542C100.475 49.7458 98.782 49.645 100.84 47.7835C102.288 46.4714 102.389 44.0808 100.995 44.0539C97.6933 43.9951 96.9306 38.5519 99.9428 36.5426C100.287 36.3125 115.691 36.121 134.173 36.1159C171.511 36.1058 169.826 35.9294 169.928 39.859C169.977 41.6566 170.216 42.1135 171.175 42.2513C174.802 42.7687 173.562 37.5809 169.266 34.2578L167.244 32.6921H133.973H100.702L98.2175 35.1785ZM41.7745 49.9423C39.6493 52.2053 40.5952 56.1902 43.5251 57.3125C44.7095 57.7661 44.7801 57.1058 43.8292 54.475C43.2865 52.973 43.2865 52.3246 43.8292 51.4543C45.5058 48.7697 43.9518 47.6256 41.7745 49.9423ZM118.036 53.2906C116.657 54.6698 117.101 102.681 118.492 102.681C119.604 102.681 119.631 102.301 119.631 85.6356V68.592L121.539 68.2342C127.359 67.1422 134.823 56.6842 132.113 53.4182C131.233 52.3582 119.08 52.2473 118.036 53.2906ZM92.3173 69.605C92.3173 85.9582 92.4501 87.0989 94.2661 86.4017C95.0809 86.0892 95.1632 84.2798 95.0288 69.7562L94.8776 53.4619L93.5975 53.2805L92.3173 53.0974V69.605ZM97.5724 69.8201C97.7017 84.169 97.8412 86.4638 98.577 86.4638C99.3128 86.4638 99.4506 84.169 99.5816 69.8201C99.7295 53.425 99.7144 53.1763 98.577 53.1763C97.438 53.1763 97.4245 53.425 97.5724 69.8201ZM102.56 66.833C102.56 80.1101 102.591 80.4898 103.698 80.4898C104.805 80.4898 104.835 80.1101 104.835 66.833C104.835 53.556 104.805 53.1763 103.698 53.1763C102.591 53.1763 102.56 53.556 102.56 66.833ZM107.511 53.5358C107.291 53.7559 107.111 64.9027 107.111 78.3074V102.681H108.541H109.969L109.821 78.079C109.668 52.805 109.546 51.5014 107.511 53.5358ZM112.632 53.5358C112.412 53.7559 112.234 64.9027 112.234 78.3074V102.681H113.662H115.09L114.942 78.079C114.789 52.805 114.666 51.5014 112.632 53.5358ZM129.261 58.4398C127.775 62.2483 125.806 63.8863 120.911 65.3815C119.648 65.7662 119.631 65.699 119.631 60.612V55.4527H125.027H130.425L129.261 58.4398ZM48.5046 64.4878C48.5046 64.7616 48.8591 65.8502 49.2925 66.9053C50.86 70.7206 48.0779 73.0474 44.1769 71.1859C42.3693 70.3241 42.2466 70.3291 42.2634 71.2514C42.2953 72.9919 43.8023 74.3191 46.0955 74.6266C50.6164 75.233 54.0083 68.3551 50.7793 65.1262C49.5916 63.9384 48.5046 63.6326 48.5046 64.4878ZM42.5809 80.7602C39.8409 83.5003 39.8173 85.649 42.5003 88.2564C46.408 92.0498 51.8781 89.933 51.91 84.6142C51.9217 82.5746 50.5811 83.1408 49.5412 85.6171C48.6844 87.6566 48.3837 87.8868 46.5743 87.8868C42.3474 87.8868 42.0316 82.1194 46.2282 81.5397C48.2711 81.2575 48.1972 79.1306 46.1375 78.8921C45.022 78.7627 44.0862 79.255 42.5809 80.7602ZM102.56 84.3302L102.562 87.6012L98.8173 87.4097C92.0385 87.0602 90.5567 88.5537 93.9301 92.3321C97.1389 95.9273 100.59 95.9071 103.357 92.2783C105.373 89.6357 105.633 81.0576 103.698 81.0576C102.691 81.0576 102.56 81.4373 102.56 84.3302ZM101.579 90.8268C100.161 92.2447 97.4094 92.453 95.9528 91.2535C95.0809 90.5345 95.3732 90.4118 98.6257 90.1178C100.633 89.9381 102.396 89.7466 102.543 89.6911C102.691 89.6374 102.258 90.1481 101.579 90.8268ZM42.5423 96.5808L40.6758 98.4456L40.276 122.043C40.0542 135.023 39.9601 152.716 40.0643 161.363L40.2525 177.085L38.6447 175.731C37.1159 174.442 36.6371 174.377 28.9713 174.378C19.7413 174.382 19.4037 174.524 16.0655 179.781C15.0726 181.347 14.4107 182.158 14.5955 181.584C14.7803 181.011 14.9315 180.047 14.9315 179.44C14.9315 178.834 16.9173 176.107 19.3415 173.382L23.7515 168.428L24.0371 161.301C24.2253 156.575 24.5881 153.775 25.1157 152.982C27.0863 150.02 23.9783 147.095 20.961 149.072C19.1903 150.232 19.0912 151.53 20.6217 153.477C21.8901 155.09 22.3504 165.978 21.1828 166.701C20.8636 166.897 20.7544 167.302 20.9409 167.601C21.1257 167.9 19.5465 169.916 17.4313 172.082C12.8685 176.75 12.1343 177.95 12.1074 180.777C12.0906 182.525 11.8806 182.911 10.9499 182.911C10.3233 182.911 9.81085 182.661 9.81085 182.355C9.81085 180.918 6.99013 179.868 5.86453 180.887C3.70741 182.839 4.23829 187.459 6.73309 188.415C7.69909 188.786 9.81085 187.098 9.81085 185.952C9.81085 185.532 10.3081 185.187 10.9146 185.187C11.9646 185.187 12.0285 185.74 12.1965 196.227L12.3712 207.264L15.5481 210.594C20.4402 215.72 21.8884 221.477 19.0105 224.353C17.6598 225.704 17.4465 227.318 18.3856 229.072C18.9534 230.136 18.8358 230.196 16.5359 230.032L14.0781 229.855L13.9185 222.752C13.7841 216.834 13.9252 215.338 14.7635 213.781C16.1982 211.115 13.779 207.677 11.8638 209.665C10.5316 211.048 11.4153 229.591 12.892 231.223C13.9521 232.395 14.3485 232.416 36.6421 232.416C56.2595 232.416 59.3154 232.528 59.3154 233.256C59.3154 235.152 62.1916 236.197 63.3793 234.732C66.5159 230.858 63.3172 224.887 60.1067 228.62L58.8013 230.139H41.5897C28.2018 230.139 24.5293 229.988 25.0602 229.455C26.2228 228.293 25.8817 225.213 24.4638 224.063C23.4441 223.238 23.2206 222.561 23.3701 220.75C23.6776 217.02 22.5318 214.344 19.3869 211.447C15.0676 207.469 15.0121 207.268 14.8962 195.34L14.7937 184.826L16.3125 183.188C17.1474 182.288 18.2411 180.683 18.7434 179.623C19.9799 177.019 21.2735 176.651 29.2317 176.651C38.932 176.651 41.1933 178.227 37.4452 182.375C34.023 186.163 35.3301 190.96 40.2239 192.574C43.4226 193.631 48.4206 190.644 48.6541 187.538C48.765 186.076 53.0557 185.668 53.0557 187.118C53.0557 187.766 54.1813 188.601 55.0533 188.601C56.6543 188.601 57.6539 184.322 56.3569 183.025C55.406 182.074 53.6555 182.172 53.2624 183.195C52.8457 184.28 46.3156 184.391 44.9665 183.338C44.1517 182.701 44.0241 178.222 43.7586 140.664C43.4377 95.5493 43.3571 96.9907 46.2215 96.9907C50.6987 96.9907 51.3757 102.767 46.9943 103.588C45.0153 103.959 44.4104 105.3 45.9544 105.893C47.1472 106.35 50.0838 105.046 51.0868 103.613C55.0163 98.0038 47.3925 91.729 42.5423 96.5808ZM94.2527 97.787C90.429 101.611 91.7176 103.234 98.577 103.234C103.32 103.234 104.835 102.815 104.835 101.503C104.835 96.3456 98.0696 93.9701 94.2527 97.787ZM100.89 98.7178C102.78 99.7291 102.11 100.127 98.8626 99.9257C97.1406 99.8182 95.7311 99.5191 95.7311 99.2621C95.7311 98.155 99.1633 97.7938 100.89 98.7178ZM362.312 106.058C387.146 109.376 408.188 115.887 429.828 126.948C442.35 133.349 443.098 132.8 421.843 132.82L403.42 132.839L403.667 180.077C403.803 206.058 403.771 227.246 403.598 227.162C403.423 227.078 401.288 226.026 398.85 224.825C377.175 214.144 347.741 221.576 342.298 239.107C341.277 242.4 338.545 381.111 339.395 386.566C342.873 408.879 381.724 420.846 404.445 406.6L408.122 404.295L410.078 408.175L412.031 412.058L429.278 412.359C438.765 412.525 446.549 412.626 446.576 412.584C446.979 411.967 450.335 190.846 450.272 169.113C450.223 152.604 450.352 139.097 450.557 139.097C452.479 139.097 471.335 154.458 480.878 163.799C574.849 255.778 567.292 412.001 464.921 493.635C402.04 543.78 315.309 552.875 244.591 516.742L237.699 513.221L252.729 513.07L267.756 512.917L267.409 458.265C267.217 428.204 267.241 403.692 267.459 403.791C267.677 403.89 269.613 404.829 271.758 405.879C289.381 414.494 316.522 410.116 325.246 397.252C329.271 391.318 329.06 396.101 328.892 314.888L328.74 241.803L327.405 238.494C319.309 218.424 281.522 211.288 260.919 225.934C259.697 226.801 259.622 226.729 257.639 222.791L255.608 218.759H238.262H220.916L220.772 360.762L220.629 502.766L217.215 500.347C130.425 438.889 101.46 318.616 150.079 221.588C182.636 156.621 246.056 112.171 315.653 105.542C319.095 105.214 322.938 104.845 324.189 104.722C330.172 104.131 354.186 104.972 362.312 106.058ZM188.077 125.531C189.28 126.174 189.284 126.199 188.183 126.629C185.927 127.51 183.377 126.796 184.173 125.505C184.68 124.684 186.52 124.697 188.077 125.531ZM144.634 141.373L144.718 154.46H132.404C119.241 154.46 114.04 153.38 117.354 151.33C117.667 151.137 117.922 150.61 117.922 150.159C117.922 149.096 115.841 149.094 115.246 150.156C114.898 150.778 113.719 149.892 110.31 146.458L105.833 141.942H114.401C122.835 141.942 125.202 141.573 126.764 140.01C127.198 139.577 129.561 138.063 132.017 136.647C134.472 135.231 136.819 133.667 137.23 133.171C137.64 132.676 138.267 132.262 138.62 132.256C138.973 132.247 140.412 131.357 141.822 130.278C143.23 129.198 144.421 128.308 144.466 128.301C144.513 128.292 144.589 134.176 144.634 141.373ZM204.807 137.692C202.556 139.673 183.733 139.903 182.078 137.971C181.122 136.854 181.216 136.844 192.906 136.679C199.39 136.587 205.081 136.462 205.551 136.4C206.042 136.336 205.727 136.884 204.807 137.692ZM171.392 138.999C170.814 140.197 169.94 141.509 169.453 141.914C168.964 142.319 168.564 143.248 168.564 143.979C168.564 145.044 168.173 145.378 166.573 145.679C162.792 146.388 165.08 149.892 169.844 150.69C171.019 150.887 172.811 151.194 173.828 151.376L175.677 151.705L175.501 158.59C175.338 164.9 175.209 165.612 173.95 167.105L172.579 168.737L172.421 160.325C172.28 152.841 172.154 151.893 171.267 151.723C170.352 151.547 170.273 152.3 170.273 161.2C170.273 171.282 170.095 172.67 168.801 172.67C168.174 172.67 167.991 170.623 167.867 162.284C167.712 151.959 167.704 151.9 166.414 151.717L165.115 151.532L165.176 163.373C165.207 169.886 165.476 175.504 165.77 175.86C166.121 176.283 165.918 176.969 165.179 177.859L164.05 179.213L164.031 160.135C164.01 138.522 163.89 139.127 168.448 137.724C172.438 136.498 172.573 136.555 171.392 138.999ZM176.484 137.598C175.336 138.601 173.47 139.201 174.182 138.337C174.612 137.816 175.358 137.39 175.842 137.39C176.326 137.39 176.615 137.484 176.484 137.598ZM87.9594 151.757C88.1627 157.157 88.3324 170.919 88.334 182.341L88.3357 203.111L79.6585 202.942L70.9797 202.774L71.2182 176.767C71.3509 162.465 71.5592 151.594 71.6819 152.612C71.8986 154.403 77.5233 155.707 77.5233 153.965C77.5233 153.691 78.548 153.304 79.7997 153.104C81.2713 152.869 82.076 152.441 82.076 151.893C82.076 151.428 82.3952 151.038 82.7867 151.028C85.6074 150.957 88.7457 143.843 86.5667 142.462C85.9165 142.05 85.9367 141.958 86.6809 141.951C87.4604 141.944 87.6385 143.31 87.9594 151.757ZM198.083 143.243C197.264 143.937 195.187 145.719 193.47 147.206L190.349 149.909H184.294H178.238V148.279C178.238 147.019 178.755 146.29 180.514 145.072C181.766 144.204 182.79 143.145 182.79 142.719C182.79 142.097 184.464 141.946 191.184 141.963L199.575 141.983L198.083 143.243ZM172.784 144.646C173.597 145.61 173.665 145.924 173.063 145.917C171.618 145.901 170.659 144.943 171.056 143.91C171.266 143.364 171.497 143.018 171.571 143.142C171.645 143.265 172.191 143.942 172.784 144.646ZM175.961 148.263C175.961 149.963 175.205 150.321 173.686 149.339C173.117 148.972 173.07 148.785 173.544 148.78C173.935 148.775 174.254 148.138 174.254 147.366C174.254 146.351 174.491 146.052 175.108 146.289C175.595 146.475 175.961 147.324 175.961 148.263ZM188.242 152.108C188.076 152.379 187.293 152.478 186.501 152.327C185.228 152.083 185.067 152.243 185.067 153.738C185.067 154.7 184.578 155.865 183.928 156.453C182.805 157.467 182.79 157.446 182.79 154.833C182.79 152.387 182.681 152.184 181.367 152.184C179.978 152.184 179.944 152.281 179.944 156.419C179.944 158.748 179.689 160.811 179.377 161.004C179.034 161.215 178.807 160.468 178.807 159.126C178.807 157.899 178.644 155.707 178.446 154.255L178.083 151.616H183.315C186.192 151.616 188.41 151.838 188.242 152.108ZM122.174 159.038C121.973 159.364 122.221 160.263 122.727 161.034C124.059 163.068 121.937 164.024 118.06 163.137C114.73 162.375 114.33 162.694 116.39 164.466C120.834 168.29 128.456 163.368 124.389 159.3C123.384 158.296 122.685 158.213 122.174 159.038ZM115.691 169.59C113.564 171.379 113.514 172.088 115.38 173.953C118.685 177.259 125.889 175.611 125.889 171.551C125.889 170.652 124.105 170.85 123.389 171.828C122.473 173.08 119.013 173.496 117.694 172.512C116.279 171.455 116.913 170.528 119.365 170.067C121.993 169.573 122.011 168.117 119.389 168.117C118.124 168.117 116.829 168.633 115.691 169.59ZM151.495 169.578C151.495 170.012 152.006 171.203 152.631 172.228C154.123 174.677 154.098 178.461 152.567 181.622C151.3 184.242 151.489 185.26 153.058 184.27C156.636 182.012 157.605 175.299 154.919 171.379C153.442 169.224 151.495 168.199 151.495 169.578ZM137.41 169.967C133.991 174.251 134.658 183.143 138.489 184.359C140.254 184.92 140.362 184.3 138.907 181.945C137.269 179.296 137.111 174.185 138.6 172.058C140.174 169.812 139.075 167.88 137.41 169.967ZM138.978 177.078C138.986 180.789 143.762 184.102 147.494 182.983C150.948 181.948 153.925 176.083 150.996 176.083C150.217 176.083 149.787 176.443 149.787 177.095C149.787 181.179 144.036 182.034 142.245 178.217C141.177 175.941 138.974 175.173 138.978 177.078ZM115.632 179.354L113.894 180.92L113.904 206.034L113.912 231.15L112.192 231.863C106.7 234.138 109.221 239.813 115.726 239.813C119.149 239.813 123.209 236.908 122.159 235.209C121.655 234.393 119.631 234.606 119.631 235.475C119.631 235.907 119.204 236.61 118.685 237.039C117.823 237.753 117.808 237.711 118.517 236.572C119.192 235.49 119.165 235.181 118.324 234.252C116.679 232.434 116.86 205.979 118.515 206.411C119.854 206.762 119.601 204.769 118.159 203.624C117.027 202.723 116.281 182.212 117.334 180.942C118.374 179.69 121.521 179.835 122.747 181.189C123.789 182.341 122.394 183.48 119.938 183.48C119.108 183.48 118.369 184.875 118.91 185.416C119.973 186.479 124.288 184.84 125.274 182.997C127.513 178.813 119.57 175.813 115.632 179.354ZM40.1097 184.324C39.9618 185.102 40.0374 186.19 40.2793 186.743C40.5213 187.296 40.6691 187.966 40.6086 188.235C40.5481 188.502 40.7934 189.078 41.1563 189.515C42.0383 190.577 41.0975 190.523 39.5267 189.423C38.0063 188.357 37.7963 185.165 39.1554 183.805C40.3415 182.619 40.4272 182.666 40.1097 184.324ZM44.8053 189.171C44.2391 189.796 43.3672 190.291 42.8682 190.273C42.2483 190.248 42.3491 190.079 43.1824 189.743C43.8544 189.471 44.5734 188.976 44.7801 188.641C44.9884 188.305 45.3093 188.032 45.4957 188.032C45.6822 188.032 45.3714 188.544 44.8053 189.171ZM33.9945 201.688C35.0058 202.807 34.9873 202.826 32.9445 202.826C30.7773 202.826 30.3925 202.389 31.5467 201.233C32.4757 200.306 32.7966 200.366 33.9945 201.688ZM103.778 204.472C103.353 204.741 102.873 206.129 102.713 207.555C102.053 213.408 107.526 217.111 109.431 212.101C110.167 210.164 109.744 209.86 107.945 211.037C105.24 212.812 104.136 210.186 105.48 205.174C105.741 204.202 104.81 203.819 103.778 204.472ZM92.6634 210.651C93.08 211.199 93.4278 212.341 93.4379 213.191C93.448 214.14 93.8949 214.97 94.5937 215.345C96.3359 216.277 96.2384 222.235 94.4509 224.022L93.1708 225.302L92.9893 223.718C92.8885 222.846 92.3123 221.825 91.7092 221.447C90.2912 220.561 90.3081 219.221 91.7478 218.322C93.3824 217.301 93.3354 213.448 91.6739 212.284C90.9347 211.765 90.5937 211.088 90.802 210.544C91.2438 209.393 91.7293 209.42 92.6634 210.651ZM579.845 227.977C581.021 229.153 580.69 230.643 579.331 230.289C578.63 230.105 577.926 230.304 577.632 230.769C577.28 231.327 577.128 231.043 577.122 229.806C577.11 227.295 578.338 226.47 579.845 227.977ZM561.945 230.242C562.781 231.567 561.936 233.855 560.342 234.581L558.905 235.236V231.48C558.905 227.589 559.992 227.145 561.945 230.242ZM113.941 234.929C113.941 235.372 114.095 236.14 114.285 236.636C114.734 237.805 113.193 237.839 112.234 236.683C111.668 236.002 111.668 235.656 112.234 234.976C113.126 233.899 113.941 233.877 113.941 234.929ZM280.368 248.443C283.637 251.015 283.505 248.231 283.505 314.069C283.505 379.904 283.637 377.121 280.368 379.693C277.072 382.285 269.661 381.003 267.867 377.531C266.505 374.896 266.567 253.708 267.931 250.83C269.687 247.131 276.933 245.74 280.368 248.443ZM400.96 251.151C401.75 251.892 402.664 253.313 402.993 254.308C403.983 257.31 401.622 377.324 400.52 379.96C398.15 385.635 387.868 385.425 385.674 379.657C384.335 376.141 386.423 256.413 387.876 253.35C389.815 249.266 397.568 247.964 400.96 251.151ZM67.2097 254.879C66.0757 255.626 64.3151 257.6 63.2953 259.264C62.2756 260.927 61.155 262.476 60.8056 262.706C60.4545 262.936 60.4057 263.128 60.6947 263.133C60.9837 263.138 60.693 263.717 60.0479 264.421C59.4028 265.125 58.346 266.756 57.6992 268.045C57.0524 269.332 55.9218 271.124 55.1843 272.027C51.0465 277.09 51.0817 276.927 50.8852 291.735L50.7054 305.249H45.6503C41.5444 305.249 40.4961 305.072 40.0693 304.309C39.73 303.703 39.1151 303.483 38.3339 303.688C36.7984 304.088 36.7329 303.172 38.2617 302.688C39.5149 302.29 39.8459 300.126 38.6531 300.126C37.5006 300.126 35.4997 302.241 34.5892 304.419C33.3527 307.38 35.7585 312.646 38.3507 312.646C39.8106 312.646 39.6594 311.594 37.9777 310.035C37.1949 309.309 36.5716 308.256 36.5901 307.693C36.6203 306.876 36.7312 306.929 37.1411 307.952C37.677 309.284 39.3234 309.648 40.318 308.654C40.6909 308.281 47.8981 308.131 60.7518 308.227L80.6111 308.378L82.6237 311.36C83.7309 313 86.1198 316.713 87.9342 319.611C89.7486 322.507 92.0536 326.136 93.0548 327.675C94.0578 329.212 95.721 331.836 96.7525 333.506C100.768 340.011 101.991 337.268 101.991 321.761C101.991 305.472 101.866 305.249 92.818 305.249C84.7657 305.249 83.5376 306.772 87.7746 311.517C88.7087 312.563 89.4731 313.627 89.4731 313.88C89.4731 316.318 95.9361 323.898 97.154 322.887C98.5652 321.716 98.3872 310.369 96.9575 310.369C94.4879 310.369 92.9423 315.021 94.8776 316.629C95.348 317.019 95.7311 317.88 95.7311 318.546C95.7311 319.811 91.7663 314.848 91.7327 313.541C91.7243 313.205 90.9414 311.905 89.9922 310.653L88.2685 308.378L92.949 308.21C99.7093 307.97 99.1499 306.834 99.1129 320.736C99.086 330.321 98.9382 332.626 98.4006 331.796C98.0276 331.218 96.2939 328.53 94.5484 325.822C92.8012 323.112 90.3685 319.359 89.1421 317.482C87.9157 315.604 86.7834 313.811 86.6255 313.499C82.5515 305.415 82.1432 305.249 66.4655 305.249H53.0557V293.438C53.0557 281.028 53.3329 279.025 55.5035 275.709C62.0051 265.782 65.0056 260.912 65.0056 260.288C65.0056 260.046 65.7481 259.052 66.6553 258.081L68.3068 256.314H76.3691C84.4045 256.314 84.4297 256.308 84.2483 255.033C83.9576 252.979 70.2774 252.854 67.2097 254.879ZM580.673 256.26C581.827 258.318 582.336 260.188 582.605 263.373L582.971 267.694H580.399H577.827L577.55 264.806C576.898 258.03 575.45 257.469 558.534 257.459L544.792 257.451L544.167 255.66C543.822 254.674 543.542 253.778 543.542 253.668C543.542 253.558 551.544 253.469 561.323 253.469H579.106L580.673 256.26ZM590.022 254.706C592.248 256.797 591.402 263.165 589.088 261.735C588.25 261.217 588.354 263.144 589.256 264.873C590.224 266.728 589.335 267.694 586.664 267.694H584.787L584.999 265.023C585.293 261.338 584.152 256.707 582.518 254.943L581.15 253.468H584.929C588.023 253.468 588.942 253.691 590.022 254.706ZM87.0404 261.567C86.9128 262.588 86.8069 261.889 86.8036 260.011C86.8002 258.135 86.9044 257.298 87.0337 258.153C87.1631 259.008 87.1664 260.544 87.0404 261.567ZM123.873 264.991C122.258 271.393 120.948 278.266 119.612 287.325L118.606 294.152L118.557 278.789C118.514 264.631 118.823 260.806 119.878 262.511C120.681 263.811 122.325 263.178 122.675 261.434C122.912 260.25 123.35 259.727 124.108 259.727C125.166 259.727 125.16 259.884 123.873 264.991ZM573.572 261.584C574.237 262.291 574.954 263.956 575.166 265.281L575.552 267.694H561.363H547.174L546.289 263.994L545.405 260.297H558.884C572.147 260.297 572.382 260.317 573.572 261.584ZM99.1449 264.848C99.1449 265.937 99.5245 265.987 107.681 265.987C115.837 265.987 116.215 265.937 116.215 264.848C116.215 263.761 115.837 263.711 107.681 263.711C99.5245 263.711 99.1449 263.761 99.1449 264.848ZM636.57 267.551C637.143 269.727 637.163 272.245 636.622 274.1C636.194 275.571 636.247 275.639 637.508 275.178C640.348 274.138 640.138 265.987 637.271 265.987C636.337 265.987 636.224 266.237 636.57 267.551ZM84.9203 269.97C84.9203 271.081 85.3 271.108 100.568 271.108C115.837 271.108 116.215 271.081 116.215 269.97C116.215 268.86 115.837 268.831 100.568 268.831C85.3 268.831 84.9203 268.86 84.9203 269.97ZM570.286 270.37C562.437 270.646 561.963 271.027 563.378 275.948L563.868 277.651L556.584 277.478L549.299 277.305L548.634 274.064C548.268 272.282 547.853 270.63 547.713 270.397C547.572 270.162 553.682 270.022 561.289 270.086C568.898 270.148 572.945 270.278 570.286 270.37ZM583.141 270.452C582.808 270.99 578.983 270.891 578.42 270.328C578.224 270.132 579.272 269.97 580.75 269.97C582.23 269.97 583.306 270.187 583.141 270.452ZM585.649 284.479V297.852H587.071H588.494V284.479V271.108H587.071H585.649V284.479ZM590.2 287.609C590.2 303.732 590.227 304.11 591.339 304.11C592.45 304.11 592.477 303.732 592.477 287.609C592.477 271.487 592.45 271.108 591.339 271.108C590.227 271.108 590.2 271.487 590.2 287.609ZM594.184 287.609C594.184 303.732 594.211 304.11 595.321 304.11C596.433 304.11 596.46 303.732 596.46 287.609C596.46 271.487 596.433 271.108 595.321 271.108C594.211 271.108 594.184 271.487 594.184 287.609ZM582.294 320.399C583.482 321.83 582.748 357.028 581.53 357.028C580.626 357.028 580.527 356.327 580.527 349.874C580.527 343.366 580.438 342.736 579.532 342.911C578.237 343.158 577.696 355.728 578.943 356.586C579.385 356.888 577.871 357.016 575.122 356.905L570.57 356.724L565.449 352.868C562.632 350.748 559.431 348.299 558.336 347.428C557.24 346.556 555.641 345.385 554.779 344.826L553.215 343.81L553.334 336.335C553.452 329.026 553.459 328.99 553.64 334.694C553.808 340.05 553.916 340.527 554.942 340.527C556.039 340.527 556.059 339.976 556.059 311.621C556.059 279.699 556.268 281.349 552.247 281.349C550.494 281.349 549.801 281.117 549.801 280.527C549.801 278.985 564.604 279.015 565.189 280.559C565.439 281.22 566.321 282.253 567.147 282.854L568.651 283.95L568.597 298.866C568.545 313.496 568.565 313.783 569.699 313.783C570.83 313.783 570.855 313.474 570.855 299.558C570.855 291.735 570.961 285.332 571.092 285.332C573.098 285.332 573.13 285.613 573.13 303.256C573.13 318.485 573.236 320.53 574.035 320.837C575.868 321.54 575.976 320.338 575.976 299.016C575.976 280.405 576.092 277.445 576.829 277.161C577.579 276.873 577.683 279.494 577.683 298.685C577.683 320.463 577.686 320.537 578.892 320.918C580.959 321.575 581.083 320.355 580.957 300.696L580.834 281.634L580.527 300.696L580.22 319.757L580.089 296.538C580.003 281.169 580.151 273.436 580.527 273.668C580.841 273.861 581.157 273.428 581.233 272.705C581.306 271.983 581.438 282.251 581.523 295.525C581.627 311.79 581.879 319.898 582.294 320.399ZM571.85 273.702C574.19 274.2 573.563 276.678 570.996 277.082C566.173 277.841 566.242 277.849 565.693 276.405C564.451 273.14 566.008 272.457 571.85 273.702ZM84.9203 274.805V276.228H100.568H116.215V274.805V273.384H100.568H84.9203V274.805ZM629.761 277.794C629.998 278.654 630.22 281.619 630.255 284.383C630.337 291.121 633.334 294.053 637.303 291.274C639.216 289.934 639.083 287.708 637.165 288.966C633.225 291.546 631.381 288.83 633.192 283.11C633.518 282.078 633.447 281.85 632.904 282.186C632.378 282.511 632.284 282.317 632.557 281.463C633.059 279.877 631.471 276.228 630.278 276.228C629.517 276.228 629.415 276.539 629.761 277.794ZM573.13 281.335C573.13 283.941 571.319 283.829 568.727 281.063L567.452 279.704L570.15 279.492C571.631 279.375 572.91 279.232 572.989 279.177C573.066 279.12 573.13 280.092 573.13 281.335ZM114.225 286.16C114.225 292.474 110.656 290.564 109.378 283.566L108.971 281.349H111.599H114.225V286.16ZM558.336 311.223C558.336 340.06 558.354 340.527 559.465 340.527C560.572 340.527 560.595 340.008 560.745 311.223L560.896 281.918H559.616H558.336V311.223ZM563.456 311.223C563.456 327.341 563.564 340.527 563.695 340.527C563.826 340.527 564.339 340.681 564.832 340.871C565.647 341.184 565.733 338.371 565.733 311.569C565.733 282.298 565.719 281.918 564.596 281.918C563.472 281.918 563.456 282.298 563.456 311.223ZM553.037 296.63C552.241 296.976 552.022 296.376 551.49 292.363C551.204 290.218 550.836 287.52 550.67 286.369C550.405 284.521 550.521 284.252 551.649 284.092C552.968 283.904 554.316 296.072 553.037 296.63ZM622.364 296.684C620.734 299.837 621.717 303.9 624.607 305.951C625.694 306.724 629.385 306.425 629.889 305.522C630.284 304.817 630.606 304.976 631.664 306.408C634.522 310.273 640.196 306.824 639.515 301.637C639.151 298.854 637.192 296.712 635.011 296.712C633.074 296.712 632.958 298.545 634.875 298.902C638.442 299.563 638.435 305.249 634.868 305.249C633.308 305.249 632.308 304.204 632.308 302.574C632.308 301.645 631.977 301.265 631.169 301.265C630.42 301.265 630.032 301.645 630.032 302.377C630.032 303.207 629.502 303.589 627.94 303.881C624.249 304.575 623.221 302.29 624.652 296.571C625.202 294.372 623.516 294.456 622.364 296.684ZM34.9084 297.794C33.9357 298.703 33.141 299.726 33.141 300.071C33.141 301.173 35.2494 300.739 36.0961 299.463C36.6657 298.604 37.4973 298.23 38.8312 298.23C40.1651 298.23 40.995 298.604 41.5645 299.463C42.6397 301.082 44.5314 301.146 44.1131 299.548C43.221 296.131 37.7946 295.098 34.9084 297.794ZM553.655 308.42L553.496 317.482L553.214 307.979C553.057 302.75 553.13 298.673 553.371 298.917C553.615 299.16 553.743 303.438 553.655 308.42ZM585.649 303.229C585.649 311.382 590.202 315.036 594.894 310.648C598.612 307.172 596.512 304.318 590.627 304.849L588.494 305.04V302.015C588.494 299.167 588.41 298.989 587.071 298.989C585.681 298.989 585.649 299.086 585.649 303.229ZM0.706933 315.171C0.706933 322.623 0.732133 322.774 1.90309 322.469C3.27397 322.109 5.25469 319.166 5.25637 317.482C5.25805 316.394 5.63773 316.343 13.7941 316.343H22.3285L22.3319 334.553C22.3369 357.999 22.5688 358.735 29.9574 358.735H33.141V384.909V411.084H30.9553C27.7146 411.084 27.4509 412.107 27.4509 424.658C27.4509 435.524 27.6491 436.646 29.7273 437.463C30.2296 437.661 29.9944 437.779 29.1577 437.75C26.7402 437.668 26.4009 437.792 26.0497 438.898C25.8633 439.486 25.24 440.509 24.6671 441.171C22.2445 443.964 23.7952 458.738 26.626 459.824C27.0796 459.998 27.4509 460.457 27.4509 460.845C27.4509 461.232 27.9633 462.013 28.5882 462.579C29.2149 463.145 29.7273 463.893 29.7273 464.239C29.7273 465.158 37.6367 467.414 40.8841 467.422C44.0409 467.431 51.9184 465.736 51.9184 465.048C51.9184 464.798 53.1985 463.328 54.7626 461.779C56.3284 460.232 57.6102 458.754 57.6119 458.496C57.6136 458.238 58.0504 457.258 58.5812 456.321C60.5653 452.813 59.937 443.865 57.4321 439.949C56.2763 438.145 55.3321 436.472 55.3321 436.231C55.3321 435.993 54.5728 435.348 53.6454 434.8C52.7181 434.252 51.6294 433.485 51.2279 433.093C50.1073 432.003 46.1341 431 42.9472 431C40.1197 431 40.0744 431.027 39.4981 433.134C39.0395 434.803 38.9118 433.044 38.9068 425.024C38.9034 419.391 38.8849 402.28 38.8665 386.999L38.8312 359.217L37.168 357.554C35.5888 355.974 35.2578 355.89 30.6445 355.89C24.4773 355.89 24.6049 356.121 24.6049 345.075V336.461L26.1052 337.641C27.4542 338.702 28.4337 338.827 35.9197 338.894C40.4944 338.936 43.3403 339.127 42.2449 339.321C41.1496 339.516 40.2793 339.993 40.3096 340.384C40.3415 340.776 40.4053 342.12 40.4524 343.371C40.5129 344.977 40.7884 345.647 41.3915 345.647C41.8602 345.647 42.2483 345.968 42.2517 346.36C42.2533 346.75 43.1505 347.939 44.2425 348.999C45.3345 350.061 46.2282 351.277 46.2282 351.702C46.2282 352.127 46.7087 352.475 47.2967 352.475C47.883 352.475 48.6592 352.831 49.0187 353.265C50.487 355.034 64.646 355.03 66.4151 353.26C66.8468 352.829 67.7305 352.475 68.379 352.475C69.0275 352.475 69.5567 352.151 69.5567 351.754C69.5567 351.358 70.684 349.858 72.0616 348.421C76.4497 343.84 77.2427 333.347 73.6979 326.763C72.7403 324.982 71.8012 323.678 71.613 323.866C71.4249 324.054 70.6806 323.524 69.9599 322.685C66.7192 318.914 57.7782 317.376 50.8415 319.401C48.1468 320.187 42.2449 325.484 42.2449 327.117C42.2449 327.608 41.8955 328.009 41.4688 328.009C40.953 328.009 40.57 329.064 40.3213 331.178C39.8862 334.887 40.0861 335.366 42.1357 335.524C42.9774 335.588 40.0828 335.781 35.7013 335.951C25.9288 336.329 26.7537 337.162 26.8494 327.03C26.9788 313.454 26.7721 313.222 14.3989 313.193L5.54365 313.173L4.40629 310.814C3.77965 309.517 2.69101 308.256 1.98709 308.009L0.706933 307.56V315.171ZM593.614 308.642C593.614 309.916 591.299 310.475 589.878 309.543C587.961 308.286 588.117 308.093 591.054 308.093C592.462 308.093 593.614 308.34 593.614 308.642ZM33.1494 312.787C33.1696 314.495 36.6724 317.197 38.8631 317.197C40.7766 317.197 43.9518 314.68 43.9518 313.163C43.9518 311.651 42.6851 311.806 41.2134 313.499C40.533 314.282 39.4612 314.922 38.8312 314.922C38.2012 314.922 37.1293 314.282 36.4489 313.499C35.1503 312.005 33.1343 311.572 33.1494 312.787ZM587.795 314.851C583.717 318.826 585.28 321.304 591.711 321.062L596.174 320.896L596.349 318.82C596.727 314.287 591.066 311.661 587.795 314.851ZM568.579 320.345C568.579 327.695 570.429 330.853 574.736 330.853C577.496 330.853 580.527 327.755 580.527 324.936V322.887H575.69H570.855V319.189C570.855 315.87 570.738 315.49 569.716 315.49C568.668 315.49 568.579 315.87 568.579 320.345ZM593.614 317.197C594.187 318.265 594.048 318.336 591.358 318.336C588.45 318.336 587.949 317.97 589.177 316.741C590.276 315.643 592.929 315.915 593.614 317.197ZM578.252 325.605C578.252 328.952 573.143 329.585 571.489 326.443C570.822 325.178 570.857 325.163 574.533 325.163C576.579 325.163 578.252 325.363 578.252 325.605ZM572.443 333.091C570.183 334.276 568.315 337.693 568.822 339.714C569.362 341.864 580.125 341.644 580.431 339.477C581.07 334.969 576.233 331.104 572.443 333.091ZM629.467 334.98C630.388 336.369 630.801 401.973 629.889 401.978C629.655 401.98 629.462 401.588 629.462 401.108C629.462 399.917 627.928 399.421 626.895 400.279C625.512 401.427 625.786 405.234 627.285 405.709C628.12 405.975 628.741 405.802 629.197 405.178C630.285 403.691 630.315 403.885 630.315 412.191V420.125L623.629 420.298L616.943 420.473L617.033 394.299C617.085 379.903 617.23 368.956 617.356 369.972C617.558 371.6 619.221 372.788 619.221 371.304C619.221 371.019 620.35 370.239 621.731 369.571C623.11 368.902 624.382 367.983 624.556 367.528C624.731 367.074 625.267 366.701 625.746 366.701C626.225 366.701 626.618 366.317 626.618 365.848C626.618 365.377 626.861 364.994 627.16 364.994C627.459 364.994 627.858 364.033 628.046 362.861C628.232 361.686 628.629 360.282 628.924 359.738C630.578 356.7 628.844 345.637 626.618 345.019C625.267 344.643 625.26 344.621 626.475 344.567C627.937 344.502 628.352 342.234 626.902 342.234C624.266 342.234 622.829 337.575 624.657 334.963C625.838 333.278 628.346 333.286 629.467 334.98ZM576.156 335.49C577.422 336.157 578.227 337.058 578.242 337.824C578.247 338.059 576.579 338.25 574.533 338.25C570.598 338.25 569.958 336.76 573.31 335.41C574.943 334.751 574.739 334.746 576.156 335.49ZM558.694 350.814C560.532 352.166 562.418 353.651 562.889 354.115C566.229 357.414 570.457 359.304 574.499 359.304H578.536L578.434 363.714C578.377 366.138 578.313 368.188 578.291 368.265C578.269 368.344 577.713 367.871 577.056 367.214C575.479 365.636 574.524 366.528 575.499 368.669C576.781 371.479 575.492 371.822 563.633 371.822H553.215V359.019C553.215 346.491 553.239 346.239 554.284 347.286C554.872 347.874 556.857 349.461 558.694 350.814ZM594.536 352.722C592.71 355.116 592.662 355.864 594.326 355.976C596.705 356.137 596.947 356.188 597.367 356.608C597.599 356.84 596.06 357.028 593.95 357.028H590.113L592.786 353.898C595.756 350.422 596.852 349.685 594.536 352.722ZM550.504 372.232C550.672 386.256 550.962 385.418 546.905 382.579L545.432 381.547L547.29 373.572C548.31 369.184 549.324 364.168 549.543 362.424C550.183 357.298 550.344 358.943 550.504 372.232ZM582.803 359.625C582.803 359.803 582.518 360.482 582.168 361.135C581.631 362.14 581.676 362.268 582.466 361.964C583.59 361.532 582.874 363.187 581.412 364.4C580.631 365.046 580.527 364.791 580.527 362.219C580.527 359.684 580.675 359.304 581.666 359.304C582.291 359.304 582.803 359.449 582.803 359.625ZM597.576 372.249L597.581 385.195L591.472 385.018L585.364 384.844L585.459 373.819C585.585 359.561 585.715 359.304 592.855 359.304H597.571L597.576 372.249ZM36.4641 397.57C36.4137 418.302 36.2692 434.434 36.1432 433.416C35.9332 431.731 35.7786 431.598 34.4044 431.944C32.2792 432.477 31.6021 433.275 31.8457 434.951C32.0171 436.137 31.8894 436.038 31.1469 434.419C30.4295 432.855 30.2346 430.442 30.2346 423.038L30.2329 413.644L32.3514 413.291C36.0978 412.668 35.9853 413.535 35.9853 385.369C35.9853 371.346 36.1129 359.874 36.2709 359.874C36.4271 359.874 36.5145 376.837 36.4641 397.57ZM595.074 360.952C594.899 361.233 594.921 362.278 595.119 363.274C595.543 365.389 596.437 364.537 596.452 362.007C596.46 360.487 595.714 359.917 595.074 360.952ZM601.609 369.546C601.907 369.546 602.15 369.945 602.15 370.433C602.15 370.921 602.406 371.162 602.718 370.968C603.032 370.775 603.288 370.848 603.288 371.128C603.288 371.746 610.535 373.183 612.116 372.877C612.818 372.743 613.373 372.029 613.601 370.962C613.801 370.026 613.994 380.691 614.031 394.658L614.098 420.055L612.818 420.399C612.114 420.587 610.066 420.745 608.267 420.749L604.995 420.757V405.343C604.995 390.09 605.008 389.917 606.263 388.902C608.973 386.708 607.299 380.926 603.956 380.926C600.579 380.926 598.901 386.752 601.581 389.176C602.664 390.157 602.718 390.93 602.718 405.415V420.624L601.297 420.896L599.874 421.169L599.876 399.483C599.879 379.073 600.504 358.728 600.899 366.275C600.991 368.074 601.312 369.546 601.609 369.546ZM582.234 376.166V385.062L578.266 384.778C575.71 384.595 574.42 384.696 574.645 385.06C574.839 385.371 574.655 385.512 574.24 385.374C572.764 384.882 573.143 383.995 575.141 383.273C576.56 382.76 577.118 382.24 577.001 381.541C576.907 380.991 577.582 379.459 578.499 378.135C579.821 376.227 580.194 375.022 580.305 372.319C580.423 369.438 581.159 367.271 582.021 367.271C582.138 367.271 582.234 371.273 582.234 376.166ZM578.879 371.111C578.592 371.659 578.078 373.159 577.737 374.448C577.394 375.735 576.351 377.655 575.416 378.715C574.482 379.775 573.713 380.833 573.708 381.069C573.693 381.821 572.156 381.524 571.408 380.622C570.82 379.914 570.825 379.484 571.433 378.347C572.303 376.721 571.784 375.867 570.439 376.717C568.023 378.241 568.1 381.611 570.576 382.74C571.87 383.328 571.9 383.431 570.986 384.125C569.205 385.477 568.179 385.101 568.458 383.197C568.725 381.381 567.818 379.788 566.517 379.788C565.968 379.788 565.733 380.553 565.733 382.349V384.909H559.475H553.215V379.788V374.668H563.927H574.637L576.871 372.402C579.388 369.846 579.616 369.7 578.879 371.111ZM8.11909 380.61C6.62221 383.896 6.65749 387.605 8.21989 391.182C9.52189 394.168 11.4169 395.006 11.0557 392.439C10.918 391.451 11.0893 391.258 11.8521 391.55C12.682 391.869 12.7643 391.681 12.4098 390.267C11.5295 386.747 11.422 384.24 12.0805 382.65C12.8718 380.738 12.3964 379.392 11.2607 380.334C10.6979 380.802 10.5971 380.617 10.8088 379.51C11.2825 377.035 9.39589 377.808 8.11909 380.61ZM17.9303 379.177C18.142 379.983 17.9891 380.185 17.3507 379.94C16.6317 379.664 16.5561 379.94 16.9072 381.547C17.4649 384.101 17.4683 388.197 16.9139 390.267C16.5544 391.611 16.6317 391.863 17.3205 391.599C17.9639 391.35 18.105 391.602 17.9068 392.642C17.3927 395.335 19.3902 394.142 20.9627 390.819C22.7368 387.066 22.6108 383.288 20.5981 380.034C19.2827 377.907 17.4448 377.316 17.9303 379.177ZM13.3137 382.977C12.4216 383.602 12.0873 384.429 12.0873 386.01C12.0873 389.616 14.8962 390.683 16.5645 387.711C18.2445 384.718 15.8353 381.21 13.3137 382.977ZM547.663 386.177C548.521 386.771 549.457 387.113 549.739 386.939C550.571 386.426 550.774 391.735 549.951 392.419C548.274 393.81 549.758 397.427 552.004 397.427C553.988 397.427 555.401 393.59 553.785 392.592C552.251 391.644 553.15 387.374 554.83 387.619C557.556 388.019 559.33 392.709 558.343 396.903C557.875 398.882 557.666 398.497 557.548 395.449C557.445 392.778 555.824 392.931 554.998 395.691C553.825 399.604 550.253 399.599 548.935 395.683C548.034 393.005 546.388 392.711 546.388 395.228C546.388 399.318 551.278 402.462 554.297 400.313C556.402 398.813 557.649 399.591 556.137 401.459C554.991 402.875 538.986 404.234 538.989 402.914C538.992 401.069 544.919 384.417 545.46 384.728C545.813 384.931 546.804 385.583 547.663 386.177ZM544.096 389.035C541.951 393.761 543.475 402.549 546.44 402.549C547.718 402.549 547.552 401.071 546.026 398.867C544.995 397.376 545.002 391.256 546.035 390.075C547.555 388.338 547.735 386.616 546.398 386.616C545.533 386.616 544.884 387.298 544.096 389.035ZM563.631 392.807L561.466 395.723L561.076 393.489C560.863 392.261 560.286 390.48 559.796 389.534L558.905 387.81L562.176 387.641C566.417 387.419 566.749 388.603 563.631 392.807ZM582.724 416.869C582.773 423.799 582.59 428.132 582.242 428.25C581.906 428.362 582.007 429.068 582.493 430.004C582.939 430.864 583.128 431.568 582.913 431.568C582.696 431.568 582.595 436.196 582.686 441.856L582.854 452.144L581.59 450.967C580.895 450.32 579.867 449.643 579.304 449.465C578.338 449.157 578.279 447.697 578.288 423.71L578.296 398.282L576.819 397C574.949 395.379 572.065 395.337 570.077 396.899L568.579 398.079V394.956C568.579 393.237 568.409 391.362 568.201 390.789C567.939 390.062 568.268 390.213 569.291 391.288C572.342 394.497 577.967 393.496 577.967 389.744C577.967 388.229 578.188 388.007 579.959 387.755L581.95 387.469L582.298 396.573C582.489 401.581 582.681 410.714 582.724 416.869ZM597.597 404.185C597.597 422.524 597.369 423.978 594.839 421.689C592.641 419.7 589.631 422.002 589.631 425.671C589.631 428.579 591.768 428.421 592.015 425.495C592.23 422.963 593.344 422.38 593.777 424.576C594.274 427.101 593.644 429.206 592.332 429.402C590.619 429.659 589.796 431.247 590.767 432.418C591.255 433.008 591.496 434.422 591.403 436.169C591.141 441.082 592.129 442.782 597.547 446.753C597.675 446.847 597.356 447.395 596.836 447.968C594.988 450.009 596.374 454.898 598.802 454.898C599.731 454.898 599.874 455.346 599.874 458.28V461.662L592.494 461.836L585.113 462.009L584.954 447C584.833 435.529 584.961 431.929 585.495 431.724C588.821 430.449 589.253 421.983 585.977 422.269C584.999 422.355 584.966 421.52 585.3 405.198C585.495 395.76 585.651 387.847 585.651 387.612C585.649 387.377 588.337 387.186 591.623 387.186H597.597V404.185ZM574.516 388.309C576.273 388.978 576.426 390.379 574.797 390.897C573.148 391.421 570.855 390.744 570.855 389.736C570.855 389.272 570.583 388.892 570.252 388.892C569.921 388.892 569.807 388.637 570 388.323C570.449 387.599 572.631 387.592 574.516 388.309ZM565.281 411.51C565.1 430.98 564.923 432.188 561.607 436.878C560.98 437.765 560.044 439.361 559.525 440.426L558.584 442.362L558.803 438.489C559.013 434.788 558.944 434.54 557.257 432.853C555.08 430.676 554.687 427.017 556.629 427.017C557.281 427.017 557.766 426.637 557.766 426.13C557.766 425.641 558.013 425.394 558.314 425.58C559.569 426.355 558.502 421.926 557.162 420.797C554.598 418.635 550.72 418.721 552.528 420.898C553.007 421.476 552.891 421.824 552.048 422.35C550.589 423.262 550.645 424.616 552.217 426.41C553.244 427.583 553.133 427.541 551.648 426.198C550.633 425.279 549.801 424.221 549.801 423.846C549.801 423.472 549.289 423.032 548.662 422.869C547.777 422.637 547.525 422.85 547.525 423.833C547.525 425.3 550.27 428.154 551.681 428.154C553.121 428.154 552.958 430.823 551.49 431.289C546.604 432.839 546.472 438.311 551.287 439.766C552.725 440.201 554.339 477.862 552.978 479.223C552.795 479.406 552.646 478.104 552.646 476.33C552.646 474.253 552.411 473.106 551.982 473.106C551.618 473.106 551.485 472.939 551.688 472.736C551.891 472.533 551.423 471.777 550.645 471.056C549.869 470.335 549.232 469.479 549.232 469.149C549.232 468.138 547.055 468.492 546.779 469.549C546.636 470.097 546.488 467.281 546.453 463.291L546.388 456.035H548.662C552.16 456.035 551.698 451.6 547.943 449.139C546.112 447.938 546.05 447.776 546.238 444.709C546.346 442.958 546.231 435.978 545.983 429.197C545.595 418.565 545.645 416.96 546.344 417.533C547.018 418.086 547.09 417.958 546.777 416.774C546.571 415.991 546.399 414.774 546.394 414.071C546.389 413.15 546.05 412.79 545.183 412.79C544.197 412.79 544.029 413.056 544.256 414.247C544.483 415.426 544.36 415.626 543.612 415.297C543.103 415.075 541.857 414.776 540.839 414.633L538.991 414.373V409.53C538.991 405.318 539.1 404.777 539.832 405.385C543.234 408.209 557.099 405.104 559.189 401.049C559.503 400.442 560.836 398.976 562.153 397.79C563.47 396.602 564.703 395.14 564.895 394.539C565.084 393.937 565.288 393.445 565.345 393.444C565.402 393.444 565.373 401.575 565.281 411.51ZM658.455 398.512C659.388 400.36 660.438 401.968 660.787 402.084C662.098 402.521 661.478 422.894 660.08 425.382L658.879 427.519L657.694 425.987C657.043 425.145 655.904 423.816 655.163 423.033C652.053 419.746 650.756 405.197 653.195 400.948C654.912 397.954 652.592 394.851 649.642 396.195C647.646 397.104 647.247 399.419 648.735 401.434C649.827 402.91 649.946 403.812 649.946 410.591V418.111L648.58 416.826C646.618 414.983 644.876 415.446 643.428 418.197L642.23 420.473L637.553 420.307L632.876 420.142V413.394V406.645L634.811 408.58C637.807 411.576 641.719 410.998 643.621 407.28C644.97 404.642 643.86 399.925 641.592 398.655C640.693 398.153 640.695 398.023 641.603 396.635C642.564 395.167 642.653 395.152 649.667 395.152H656.759L658.455 398.512ZM574.875 398.016C576.604 398.942 576.569 420.377 574.837 421.457C574.212 421.849 573.699 422.649 573.699 423.237C573.699 424.023 573.999 424.226 574.837 424.006C575.952 423.715 575.976 423.989 575.976 437.241C575.976 451.813 575.883 452.274 572.933 452.319C571.085 452.346 571.139 454.132 573.044 456.037C575.314 458.307 578.521 458.399 581.053 456.269L582.803 454.797V458.172C582.803 460.827 582.56 461.769 581.666 462.579C581.039 463.145 580.527 464.017 580.525 464.516C580.524 465.033 580.036 464.627 579.396 463.575C577.392 460.289 573.347 461.801 573.002 465.962C572.814 468.235 570.991 467.866 570.539 465.463C570.165 463.463 568.809 462.406 567.848 463.365C567.509 463.706 567.62 464.529 568.15 465.593C568.979 467.251 568.962 467.295 567.105 468.178C566.069 468.674 564.794 469.727 564.273 470.524C563.535 471.647 562.85 471.968 561.177 471.968H559.026L558.971 460.541C558.939 454.256 558.808 448.942 558.68 448.734C558.551 448.524 559.125 447.061 559.955 445.482C561.686 442.189 567.371 430.723 568.137 428.977C568.419 428.334 568.57 421.227 568.473 413.182C568.359 403.846 568.481 399.124 568.812 400.125C569.473 402.122 570.721 403.077 572.703 403.1C574.802 403.124 574.713 401.828 572.562 401.015C570.66 400.298 570.331 398.927 571.85 398.042C573.123 397.301 573.53 397.297 574.875 398.016ZM641.981 404.243C641.981 407.087 638.309 409.219 636.814 407.243C636.174 406.396 636.18 406.353 636.859 406.959C638.06 408.029 639.799 407.853 639.653 406.674C639.586 406.126 639.727 405.225 639.965 404.673C640.206 404.12 640.269 402.969 640.107 402.114L639.809 400.562L640.894 401.902C641.492 402.64 641.981 403.693 641.981 404.243ZM536.714 411.653C536.714 413.217 536.457 414.497 536.145 414.497C535.516 414.497 535.401 412.08 535.935 410.087C536.472 408.081 536.714 408.567 536.714 411.653ZM548.231 409.938C545.986 413.531 550.638 417.713 555.204 416.206C558.746 415.037 558.208 413.331 554.421 413.726C550.64 414.123 549 413.066 550.262 411.045C550.635 410.448 550.939 409.703 550.939 409.385C550.939 408.365 548.96 408.77 548.231 409.938ZM407.549 416.159C407.549 417.385 407.383 418.857 407.181 419.43C406.924 420.154 406.998 420.298 407.418 419.904C408.314 419.062 408.97 413.929 408.183 413.929C407.825 413.929 407.549 414.9 407.549 416.159ZM430.878 417.627C430.878 421.219 430.836 421.326 429.418 421.326C426.219 421.326 425.757 422.077 425.757 427.287C425.757 432.658 425.923 432.907 429.582 432.976L432.017 433.021V423.475C432.017 417.489 431.803 413.929 431.447 413.929C431.126 413.929 430.878 415.541 430.878 417.627ZM440.361 414.307C440.153 414.517 439.982 416.181 439.982 418.007C439.982 420.577 439.79 421.326 439.128 421.326C438.659 421.326 438.275 421.71 438.275 422.18C438.275 422.649 438.659 423.033 439.128 423.033C439.824 423.033 439.982 423.981 439.982 428.154C439.982 431.188 440.213 433.275 440.551 433.275C440.889 433.275 441.121 431.188 441.121 428.154C441.121 423.981 441.278 423.033 441.974 423.033C442.443 423.033 442.827 422.649 442.827 422.18C442.827 421.71 442.443 421.326 441.974 421.326C441.329 421.326 441.121 420.631 441.121 418.481C441.121 416.016 441.272 415.636 442.258 415.636C442.891 415.636 443.397 415.257 443.397 414.783C443.397 413.921 441.107 413.563 440.361 414.307ZM446.051 414.307C445.843 414.517 445.672 416.181 445.672 418.007C445.672 420.577 445.48 421.326 444.818 421.326C444.35 421.326 443.965 421.71 443.965 422.18C443.965 422.649 444.35 423.033 444.818 423.033C445.514 423.033 445.672 423.981 445.672 428.154C445.672 431.188 445.904 433.275 446.241 433.275C446.579 433.275 446.811 431.188 446.811 428.154C446.811 423.981 446.969 423.033 447.664 423.033C448.133 423.033 448.518 422.649 448.518 422.18C448.518 421.71 448.133 421.326 447.664 421.326C447.019 421.326 446.811 420.631 446.811 418.481C446.811 416.016 446.962 415.636 447.948 415.636C448.58 415.636 449.087 415.257 449.087 414.783C449.087 413.921 446.797 413.563 446.051 414.307ZM434.861 417.343C434.861 417.968 435.118 418.481 435.43 418.481C435.743 418.481 436 417.968 436 417.343C436 416.717 435.743 416.204 435.43 416.204C435.118 416.204 434.861 416.717 434.861 417.343ZM542.972 417.343C543.597 417.746 543.179 417.898 541.408 417.903C540.078 417.908 538.991 417.656 538.991 417.343C538.991 416.617 541.85 416.617 542.972 417.343ZM647.463 419.447C647.609 420.397 647.362 420.619 646.235 420.554C644.708 420.466 644.421 419.682 645.516 418.588C646.448 417.656 647.243 418.005 647.463 419.447ZM536.608 441.831L536.786 463.476L535.471 464.555C534.273 465.536 534.226 465.754 534.955 466.952C535.691 468.16 535.679 468.204 534.814 467.488C534.293 467.059 533.868 466.114 533.868 465.386C533.868 462.458 529.626 461.364 527.299 463.691C525.665 465.326 525.584 465.878 526.797 467.091C527.61 467.903 527.597 467.985 526.654 467.994C524.68 468.012 520.786 472.753 520.741 475.192C520.591 483.352 519.716 477.769 519.684 468.444C519.637 455.415 519.197 454.135 514.733 454.075L512.516 454.044L517.075 446.831C519.583 442.862 522.078 438.817 522.619 437.843C523.454 436.337 523.773 436.159 524.716 436.663C526.964 437.866 529.359 437.372 531.313 435.301C532.926 433.59 534.408 429.641 533.702 428.937C533.025 428.258 531.663 429.597 531.353 431.245C530.871 433.809 529.302 435.106 526.952 434.881C524.328 434.629 524.321 432.991 526.945 432.991C530.016 432.991 531.368 430.283 529.576 427.722C528.474 426.146 529.129 424.665 532.083 422.059C536.571 418.096 536.407 417.375 536.608 441.831ZM543.542 434.091C543.542 447.432 543.496 448.007 542.419 448.349C541.801 448.546 540.776 449.366 540.143 450.172L538.991 451.637V435.912V420.187H541.265H543.542V434.091ZM655.153 426.375C657.725 429.142 657.767 429.248 656.717 430.199C656.038 430.812 655.636 430.921 655.636 430.491C655.636 429.186 652.557 427.052 650.643 427.033L648.779 427.017L649.647 425.337C650.124 424.414 650.516 422.818 650.516 421.79V419.922L651.512 421.725C652.06 422.718 653.698 424.809 655.153 426.375ZM533.554 421.483C533.405 421.872 533.778 423.161 534.382 424.347C535.377 426.298 535.518 426.388 535.864 425.296C536.617 422.926 534.403 419.272 533.554 421.483ZM379.668 429.861C379.668 435.171 379.883 438.397 380.236 438.397C380.55 438.397 380.805 437.244 380.805 435.835C380.805 433.401 380.884 433.275 382.425 433.275C385.155 433.275 385.926 431.8 385.926 426.578C385.926 421.375 385.822 421.212 382.907 421.871C381.697 422.143 380.805 422.128 380.805 421.836C380.805 421.555 380.55 421.326 380.236 421.326C379.883 421.326 379.668 424.55 379.668 429.861ZM389.719 421.706C389.125 422.301 389.276 424.74 389.909 424.74C390.222 424.74 390.479 424.355 390.479 423.887C390.479 423.29 391.078 423.033 392.469 423.033C395.848 423.033 395.451 426.309 392.043 426.556L389.625 426.731V429.861V432.991H392.612H395.599V427.842C395.599 424.594 395.347 422.439 394.917 422.009C394.195 421.286 390.363 421.063 389.719 421.706ZM398.445 429.861C398.445 435.171 398.66 438.397 399.013 438.397C399.327 438.397 399.583 437.244 399.583 435.835C399.583 433.401 399.662 433.275 401.202 433.275C403.932 433.275 404.703 431.8 404.703 426.578C404.703 421.375 404.599 421.212 401.684 421.871C400.475 422.143 399.583 422.128 399.583 421.836C399.583 421.555 399.327 421.326 399.013 421.326C398.66 421.326 398.445 424.55 398.445 429.861ZM412.507 421.679C411.307 422.879 412.174 425.548 414.377 427.433C417.177 429.829 417.416 431.568 414.946 431.568C413.619 431.568 413.239 431.316 413.239 430.43C413.239 429.804 412.967 429.291 412.635 429.291C412.293 429.291 412.107 430.103 412.208 431.141C412.379 432.927 412.473 432.991 414.946 432.991C418.741 432.991 419.059 429.824 415.544 427.04C412.72 424.802 412.455 423.033 414.946 423.033C416.273 423.033 416.653 423.285 416.653 424.171C416.653 424.797 416.925 425.31 417.258 425.31C417.597 425.31 417.785 424.498 417.685 423.46C417.508 421.626 413.826 420.359 412.507 421.679ZM434.861 427.301C434.861 430.904 435.088 433.275 435.43 433.275C435.773 433.275 436 430.904 436 427.301C436 423.697 435.773 421.326 435.43 421.326C435.088 421.326 434.861 423.697 434.861 427.301ZM384.789 427.301V431.568H382.796H380.805V427.626C380.805 423.509 380.951 423.287 383.792 423.099C384.657 423.042 384.789 423.591 384.789 427.301ZM403.566 427.301V431.568H401.573H399.583V427.626C399.583 423.509 399.729 423.287 402.57 423.099C403.435 423.042 403.566 423.591 403.566 427.301ZM430.76 427.158L430.594 431.284L428.744 431.462L426.894 431.64V427.336V423.033H428.912H430.928L430.76 427.158ZM602.612 425.736C601.771 429.975 601.702 430.101 600.702 429.271C599.936 428.636 599.98 428.399 601.065 427.243C601.898 426.358 602.204 425.468 602.016 424.485C601.839 423.559 601.994 423.033 602.444 423.033C602.982 423.033 603.022 423.675 602.612 425.736ZM612.818 423.391C614.03 423.715 614.098 424.02 614.098 429.024C614.098 434.182 614.14 434.346 615.778 435.726C617.319 437.021 617.405 437.281 616.813 438.849C615.654 441.922 618.883 445.137 620.358 442.379C621.139 440.919 624.911 440.73 624.911 442.152C624.911 443.964 626.747 446.881 628.232 447.425C629.61 447.929 629.509 447.983 627.135 448.025C624.881 448.064 624.435 447.876 623.876 446.647C622.524 443.681 619.53 445.488 619.53 449.272C619.53 452.934 623.058 454.631 624.066 451.454C624.405 450.385 625.076 450.345 642.373 450.345C656.839 450.345 660.211 450.486 659.727 451.069C659.393 451.474 659.07 454.972 659 458.985C658.879 465.9 658.832 466.152 657.787 465.516C656.883 464.966 656.523 465.07 655.652 466.135C654.704 467.291 654.099 467.416 649.483 467.416H644.364L644.953 465.492C646.183 461.483 643.64 454.898 640.861 454.898C639.73 454.898 637.417 457.662 637.062 459.436L636.718 461.156H620.83H604.944L605.112 445.278C605.205 436.546 605.151 429.48 604.995 429.577C604.838 429.674 604.711 428.241 604.711 426.395V423.037L608.124 423.042C610.003 423.045 612.114 423.203 612.818 423.391ZM630.198 428.581C630.132 431.319 630.068 433.752 630.055 433.987C630.042 434.22 627.086 434.414 623.488 434.414H616.944V429.007V423.601H623.631H630.315L630.198 428.581ZM645.395 424.74C646.02 425.365 646.277 425.878 645.963 425.878C645.65 425.878 645.395 426.198 645.395 426.59C645.397 427.107 644.355 427.247 641.558 427.104C637.299 426.886 634.569 427.895 633.576 430.059C633.124 431.04 632.972 430.521 632.802 427.442L632.592 423.6L638.425 423.601C643.497 423.601 644.406 423.751 645.395 424.74ZM585.07 429.14C584.463 430.088 584.443 430.084 584.752 429.103C584.932 428.53 585.123 427.122 585.176 425.973L585.271 423.887L585.493 426.01C585.616 427.178 585.426 428.587 585.07 429.14ZM596.768 430.313C595.791 431.237 595.758 431.215 596.092 429.861C596.285 429.078 596.465 428.055 596.49 427.584C596.519 427.059 596.778 427.23 597.166 428.036C597.676 429.096 597.601 429.521 596.768 430.313ZM661.14 428.959C660.784 429.715 660.278 430.202 660.02 430.041C659.759 429.879 659.986 429.261 660.525 428.666C661.809 427.248 661.923 427.302 661.14 428.959ZM394.462 429.516C394.462 430.904 393.525 431.568 391.571 431.568C390.736 431.568 390.479 431.165 390.479 429.861C390.479 428.29 390.637 428.154 392.469 428.154C394.191 428.154 394.462 428.339 394.462 429.516ZM653.914 431.267C654.973 432.394 655.099 432.836 654.553 433.495C654.143 433.987 653.94 435.64 654.042 437.616C654.188 440.413 654.02 441.108 652.933 442.19C651.431 443.687 651.314 445.055 652.54 446.805L653.426 448.069L643.577 448.033C637.267 448.01 634.179 447.817 634.981 447.494C638.672 446.007 638.993 439.103 635.528 435.737L633.469 433.737L634.947 431.8L636.426 429.861H644.51C652.37 429.861 652.629 429.9 653.914 431.267ZM659.203 434.098C659.437 436.282 659.369 436.663 658.901 435.805C658.566 435.197 658.03 434.525 657.71 434.311C657.316 434.052 657.353 433.422 657.824 432.389C658.701 430.464 658.828 430.622 659.203 434.098ZM661.78 433.352C661.602 434.491 661.521 434.41 661.259 432.831C661.071 431.701 661.155 431.17 661.471 431.485C661.758 431.771 661.898 432.611 661.78 433.352ZM602.597 446.789C602.53 455.16 602.392 458.965 602.293 455.244C602.142 449.564 601.928 448.218 600.969 446.871L599.825 445.265L600.988 444.539C602.527 443.578 602.54 440.631 601.011 439.25C599.566 437.942 599.577 437.135 601.058 435.795C601.871 435.059 602.169 434.231 602.009 433.145C601.881 432.278 601.989 431.568 602.248 431.568C602.506 431.568 602.664 438.417 602.597 446.789ZM596.778 436.147C597.848 437.036 597.829 438.755 596.744 439.171C596.232 439.368 595.884 440.243 595.872 441.366C595.855 443.131 595.808 443.173 595.019 442.128C593.94 440.702 593.839 432.918 594.894 432.559C595.328 432.411 595.676 432.934 595.781 433.891C595.877 434.758 596.326 435.773 596.778 436.147ZM552.646 435.551C552.646 438.021 552.547 438.118 550.902 437.238C549.553 436.517 549.507 435.68 550.742 434.316C552.17 432.739 552.646 433.048 552.646 435.551ZM534.258 435.855C533.176 438.126 533.059 438.965 533.828 438.965C534.91 438.965 536.145 437.123 536.145 435.511C536.145 433.278 535.426 433.409 534.258 435.855ZM556.506 440.201C556.305 443.674 556.411 444.643 556.963 444.432C557.6 444.186 556.54 447.721 555.715 448.591C555.592 448.722 555.498 445.392 555.508 441.194C555.522 435.402 555.675 433.817 556.147 434.629C556.52 435.27 556.663 437.493 556.506 440.201ZM658.758 438.599C659.358 438.829 659.579 439.336 659.369 439.998C659.188 440.569 659.255 442.62 659.519 444.554C659.993 448.017 659.979 448.069 658.64 448.069C657.348 448.069 657.323 448.007 658.165 446.805C659.346 445.12 659.282 443.964 657.913 442.224C657.152 441.256 656.787 439.958 656.811 438.306C656.839 436.362 656.95 436.092 657.332 437.036C657.599 437.698 658.24 438.4 658.758 438.599ZM629.462 437.827C628.335 438.557 620.524 438.557 620.074 437.827C619.849 437.463 621.63 437.261 625.018 437.266C628.649 437.273 630.047 437.449 629.462 437.827ZM635.702 441.56C635.74 444.976 632.076 447.262 629.566 445.387C628.11 444.301 626.811 441.241 627.804 441.241C628.091 441.241 628.325 441.735 628.325 442.338C628.325 443.388 630.767 445.794 631.833 445.794C632.743 445.794 633.066 443.986 632.247 443.469C631.68 443.109 631.656 442.963 632.165 442.956C632.609 442.951 632.876 442.132 632.876 440.786C632.876 437.94 633.978 436.752 634.967 438.533C635.36 439.24 635.69 440.603 635.702 441.56ZM579.847 453.304C579.956 454.211 579.689 454.879 579.136 455.091C578.439 455.36 578.252 455.004 578.252 453.409C578.252 451.057 579.568 450.97 579.847 453.304ZM556.476 459.592C556.357 460.922 556.259 459.834 556.259 457.174C556.259 454.513 556.357 453.425 556.476 454.755C556.597 456.086 556.597 458.261 556.476 459.592ZM544.215 462.066C544.059 467.281 543.932 467.958 543.271 467.054C542.532 466.043 542.465 466.046 541.237 467.138L539.967 468.269L540.758 466.952C541.474 465.762 541.427 465.532 540.271 464.585C539.179 463.689 538.991 462.984 538.991 459.785V456.035L541.692 456.034H544.395L544.215 462.066ZM516.682 457.315C517.144 457.871 516.663 457.984 514.476 457.829C512.937 457.722 511.822 457.401 511.996 457.119C512.47 456.349 516.002 456.499 516.682 457.315ZM642.497 459.541C643.262 461.739 643.188 461.825 640.933 461.374C639.043 460.996 638.551 459.693 639.818 458.426C640.958 457.285 641.837 457.651 642.497 459.541ZM517.367 477.359V494.129L515.711 494.986C514.799 495.458 513.518 496.523 512.865 497.355L511.677 498.865V491.767C511.677 487.863 511.847 479.251 512.052 472.629L512.428 460.588H514.898H517.367V477.359ZM556.474 470.119C556.352 471.291 556.251 470.332 556.251 467.985C556.251 465.638 556.352 464.677 556.474 465.852C556.597 467.024 556.597 468.944 556.474 470.119ZM578.304 465.852C578.699 467.332 578.618 467.416 576.797 467.416C575.348 467.416 574.939 467.206 575.139 466.562C575.287 466.093 575.534 465.306 575.689 464.813C576.127 463.427 577.837 464.106 578.304 465.852ZM599.328 465.096C598.044 467.495 597.418 467.706 592.154 467.521L587.071 467.342V465.672V464.002H593.493C599.65 464.002 599.891 464.047 599.328 465.096ZM602.718 465.642C602.718 466.804 602.387 467.37 601.581 467.58C600.267 467.925 600.02 466.974 601.297 466.483C601.766 466.303 602.15 465.672 602.15 465.079C602.15 464.486 602.278 464.002 602.434 464.002C602.59 464.002 602.718 464.739 602.718 465.642ZM639.676 465.815C640.604 466.96 640.817 467.007 641.723 466.26C642.615 465.524 642.702 465.526 642.455 466.278C642.133 467.258 631.164 468.069 629.664 467.224C629.198 466.962 623.458 466.834 616.906 466.94L604.995 467.132V465.709V464.286L621.818 464.412C638.5 464.534 638.65 464.546 639.676 465.815ZM568.389 471.115C568.389 471.641 567.855 471.968 566.991 471.968C565.814 471.968 565.706 471.834 566.302 471.115C566.692 470.645 567.32 470.262 567.7 470.262C568.078 470.262 568.389 470.645 568.389 471.115ZM578.508 470.752C577.642 471.538 574.4 472.481 573.993 472.064C573.789 471.854 572.55 471.389 571.242 471.028C568.96 470.399 569.071 470.371 573.955 470.317C576.848 470.285 578.815 470.473 578.508 470.752ZM583.373 470.829C583.373 471.143 582.605 471.399 581.666 471.399C580.727 471.399 579.959 471.143 579.959 470.829C579.959 470.517 580.727 470.262 581.666 470.262C582.605 470.262 583.373 470.517 583.373 470.829ZM588.494 470.829C588.494 471.143 587.726 471.399 586.787 471.399C585.848 471.399 585.08 471.143 585.08 470.829C585.08 470.517 585.848 470.262 586.787 470.262C587.726 470.262 588.494 470.517 588.494 470.829ZM593.9 470.829C593.707 471.143 592.667 471.399 591.59 471.399C590.513 471.399 589.631 471.143 589.631 470.829C589.631 470.517 590.671 470.262 591.941 470.262C593.337 470.262 594.111 470.487 593.9 470.829ZM602.931 471.096C602.755 471.555 602.443 471.889 602.238 471.837C600.963 471.513 599.338 472.793 598.968 474.411L598.553 476.236L598.043 474.324C597.737 473.175 597.088 472.298 596.415 472.121C595.539 471.891 595.439 471.659 595.948 471.044C596.902 469.895 603.375 469.942 602.931 471.096ZM655.069 470.73C655.069 470.989 654.423 471.805 653.636 472.546C651.902 474.174 650.516 478.554 650.516 482.401C650.516 484.573 650.171 485.684 649.037 487.171C647.366 489.361 647.477 492.532 649.257 493.541C649.923 493.919 647.104 494.149 640.355 494.269L630.48 494.443L629.608 492.737C629.128 491.797 628.551 490.902 628.328 490.746C627.528 490.183 623.94 482.31 624.6 482.564C624.973 482.707 625.58 482.158 625.949 481.346C627.481 477.983 624.286 474.381 621.894 476.773C621.176 477.489 620.939 477.302 620.042 475.312C618.574 472.054 616.914 471.399 610.144 471.399C606.711 471.399 604.427 471.172 604.427 470.829C604.427 470.46 613.245 470.262 629.748 470.262C643.673 470.262 655.069 470.472 655.069 470.73ZM658.948 472.679C659.336 475.407 659.662 491.636 659.354 492.864C659.074 493.98 658.662 494.159 656.371 494.159C654.045 494.159 653.839 494.067 654.728 493.417C656.408 492.189 656.162 488.795 654.249 486.798C651.257 483.676 652.898 474.981 656.945 472.514C657.946 471.903 658.766 471.402 658.766 471.401C658.766 471.401 658.849 471.975 658.948 472.679ZM562.433 474.927C561.951 475.409 561.75 478.734 561.75 486.253V496.898L560.469 496.293C559.223 495.703 559.184 495.425 558.996 485.291L558.801 474.893L560.703 474.66C561.748 474.53 562.719 474.384 562.86 474.336C563.001 474.285 562.808 474.551 562.433 474.927ZM580.283 475.382C580.283 476.189 579.904 476.52 578.983 476.52C577.735 476.52 577.721 476.476 578.679 475.429C579.976 474.008 580.283 473.999 580.283 475.382ZM592.477 475.382C592.477 476.362 592.097 476.52 589.754 476.52C587.41 476.52 587.03 476.362 587.03 475.382C587.03 474.403 587.41 474.243 589.754 474.243C592.097 474.243 592.477 474.403 592.477 475.382ZM617.191 475.142C620.061 478.011 619.755 478.226 612.81 478.226C605.964 478.226 604.995 477.895 604.995 475.552C604.995 473.855 615.55 473.501 617.191 475.142ZM556.481 485.197C556.37 487.154 556.28 485.553 556.28 481.64C556.28 477.729 556.37 476.128 556.481 478.085C556.592 480.041 556.592 483.241 556.481 485.197ZM567.294 476.273C565.325 478.524 565.281 479.004 565.221 499.023L565.165 517.829L563.238 517.604C562.178 517.48 560.713 517.7 559.984 518.089C559.01 518.61 559.277 518.094 560.985 516.154C564.016 512.71 564.026 512.634 564.026 494.159C564.026 475.102 564.066 474.813 566.654 474.813H568.57L567.294 476.273ZM600.845 478.939C600.709 479.643 600.598 479.066 600.598 477.659C600.598 476.249 600.709 475.673 600.845 476.378C600.979 477.082 600.979 478.235 600.845 478.939ZM571.185 479.129C571.492 480.758 571.781 481.111 572.634 480.888C573.659 480.62 573.699 481.304 573.699 498.995V517.379L570.83 517.575L567.959 517.774L568.039 498.27C568.107 481.914 568.255 478.633 568.958 477.929C570.254 476.634 570.77 476.911 571.185 479.129ZM606.53 480.506C607.719 480.856 611.254 481.061 614.384 480.965C621.107 480.755 620.55 480.336 624.771 488.753L627.626 494.443L620.996 494.27L614.369 494.096L613.406 492.421C611.792 489.607 609.786 490.534 609.163 494.383C608.447 498.791 612.002 502.007 613.633 498.427C614.276 497.017 614.347 497.004 621.588 497.004H628.893V507.388V517.774H607.074H585.256L586.336 516.31C587.301 515.007 587.4 513.98 587.245 506.793L587.071 498.739L595.037 498.583C601.67 498.454 603.004 498.284 603.004 497.573C603.004 496.869 601.613 496.669 595.037 496.436C590.199 496.263 587.108 495.927 587.165 495.582C587.217 495.268 586.993 494.692 586.669 494.301C586.2 493.738 587.864 493.59 594.683 493.59C602.908 493.59 603.288 493.54 603.288 492.453C603.288 491.361 602.908 491.314 593.9 491.314C584.554 491.314 584.515 491.309 585.633 490.191C586.629 489.197 587.675 489.052 594.879 488.911C602.572 488.762 603.004 488.693 603.004 487.616C603.004 486.537 602.572 486.468 594.894 486.319C588.43 486.195 586.787 486.001 586.787 485.371C586.787 484.936 586.466 484.452 586.076 484.295C585.685 484.137 587.732 483.987 590.627 483.962C596.186 483.915 598.102 483.077 598.212 480.646C598.241 479.984 598.439 480.147 598.799 481.128C600.237 485.046 603.273 484.508 603.325 480.326C603.351 478.032 603.472 477.652 603.862 478.621C604.17 479.382 605.213 480.118 606.53 480.506ZM582.467 480.219L583.398 481.64H580.601C577.973 481.64 577.807 481.554 577.884 480.219C578.002 478.178 581.13 478.178 582.467 480.219ZM590.474 479.898C590.666 480.503 591.259 481.114 591.791 481.254C592.326 481.395 590.889 481.539 588.603 481.575C584.361 481.642 584.23 481.546 585.807 479.507C586.714 478.332 590.066 478.613 590.474 479.898ZM581.523 484.31C580.976 484.452 580.527 484.935 580.527 485.382C580.527 485.828 580.016 486.193 579.39 486.193C578.763 486.193 578.252 485.83 578.252 485.387C578.252 484.943 577.931 484.452 577.54 484.295C577.148 484.137 578.109 484.016 579.674 484.027C581.239 484.039 582.071 484.167 581.523 484.31ZM552.56 489.466C550.692 493.081 552.399 497.971 555.334 497.41C556.933 497.105 557.005 497.634 555.492 498.58C554.087 499.457 554.015 501.442 555.349 502.521C556.248 503.248 556.219 503.265 555.065 502.706C554.361 502.365 553.785 501.597 553.785 501C553.785 499.544 552.711 498.963 551.794 499.924C549.109 502.741 556.787 507.018 560.735 504.905C562.406 504.009 561.877 509.851 559.955 513.505L558.608 516.067L553.919 516.231C550.114 516.366 549.232 516.564 549.232 517.288C549.232 517.869 548.918 518.059 548.326 517.832C546.851 517.266 543.769 519.106 542.621 521.238L541.554 523.218L536.716 523.057L531.878 522.894L531.723 512.865C531.58 503.657 532.334 497.141 533.146 500.56C533.529 502.166 539.773 502.055 543.295 500.381C544.567 499.776 545.823 499.28 546.087 499.28C547.547 499.28 551.085 494.568 551.186 492.49C551.245 491.288 551.73 489.637 552.266 488.819C553.682 486.658 553.835 486.996 552.56 489.466ZM578.82 489.625C578.82 489.948 579.396 490.445 580.1 490.727C581.172 491.157 580.987 491.248 578.963 491.278C576.912 491.309 576.544 491.141 576.544 490.176C576.544 489.417 576.923 489.039 577.683 489.039C578.308 489.039 578.82 489.303 578.82 489.625ZM555.492 492.5C555.492 494.104 555.272 494.751 554.779 494.59C553.435 494.146 553.548 490.176 554.904 490.176C555.228 490.176 555.492 491.221 555.492 492.5ZM581.846 494.321C581.162 494.702 580.65 495.268 580.707 495.582C580.766 495.895 579.852 496.231 578.679 496.327C576.722 496.49 576.544 496.382 576.544 495.047C576.544 493.65 576.68 493.592 579.816 493.61C582.691 493.629 582.938 493.714 581.846 494.321ZM560.649 498.731C562.706 499.831 561.252 503.263 558.732 503.263C558.667 503.263 558.704 502.111 558.816 500.703C559.04 497.898 559.057 497.879 560.649 498.731ZM580.892 499.707C580.848 500.255 581.132 500.639 581.523 500.56C582.652 500.335 582.357 502.227 580.76 505.427C578.726 509.51 578.252 509.155 578.252 503.547C578.252 498.828 578.284 498.711 579.611 498.711C580.556 498.711 580.945 499.015 580.892 499.707ZM584.23 515.774C583.254 517.663 583.406 517.602 579.39 517.701L576.544 517.774V514.546C576.544 511.435 576.604 511.307 578.227 510.949C580.498 510.452 583.24 507.195 584.095 503.981C584.779 501.409 584.799 501.494 584.955 507.704C585.08 512.591 584.912 514.456 584.23 515.774ZM643.671 517.184C644.264 517.9 643.959 518 641.513 517.895C639.307 517.8 638.796 517.612 639.253 517.061C640.061 516.089 642.825 516.164 643.671 517.184ZM573.699 521.527C573.699 522.447 573.273 522.61 570.855 522.61C568.283 522.61 568.009 522.486 568.009 521.33C568.009 520.146 568.224 520.063 570.854 520.247C573.202 520.409 573.699 520.633 573.699 521.527ZM577.854 521.686C577.296 522.35 576.774 523 576.693 523.131C576.611 523.262 576.544 522.582 576.544 521.619C576.544 520.139 576.723 519.917 577.705 520.174C578.825 520.468 578.83 520.52 577.854 521.686ZM642.237 520.942C642.573 521.271 642.196 521.471 641.241 521.471C640.39 521.471 639.705 521.789 639.705 522.184C639.705 522.684 638.531 522.894 635.723 522.894C631.856 522.894 631.742 522.854 631.738 521.471L631.735 520.048L636.716 520.231C639.455 520.332 641.939 520.651 642.237 520.942ZM573.805 526.878C573.491 529.549 568.008 529.552 568.011 526.881C568.013 525.196 568.058 525.171 571.01 525.171C574.005 525.171 574.007 525.171 573.805 526.878ZM602.523 528.516C601.535 530.379 599.529 534.227 598.068 537.072C596.605 539.914 595.121 542.56 594.773 542.952C594.424 543.343 594.316 543.662 594.535 543.662C594.752 543.662 594.528 544.111 594.039 544.659C593.55 545.206 592.764 546.55 592.29 547.646C591.445 549.608 591.432 549.556 591.423 544.232C591.417 539.943 591.543 539.091 592.033 540.107C592.798 541.693 593.987 541.762 594.468 540.249C594.668 539.624 595.034 539.111 595.282 539.111C595.531 539.111 596.45 537.52 597.322 535.575C598.196 533.631 599.639 530.802 600.529 529.292C601.421 527.78 602.15 526.224 602.15 525.836C602.15 525.448 602.637 525.13 603.234 525.13C604.222 525.13 604.158 525.434 602.523 528.516ZM586.2 529.438L585.822 533.135L585.735 530.195C585.663 527.711 586.091 524.999 586.467 525.572C586.528 525.665 586.407 527.403 586.2 529.438ZM599.182 527.019C598.814 527.88 598.323 528.846 598.091 529.167C597.859 529.488 596.897 531.281 595.949 533.151C595.004 535.02 594.219 536.117 594.207 535.588C594.194 535.059 594.409 534.486 594.684 534.317C595.649 533.72 595.744 531.817 594.898 530.066C593.96 528.132 592.149 527.692 591.731 529.295C591.588 529.843 591.44 529.203 591.405 527.874L591.339 525.455H595.595H599.849L599.182 527.019ZM636.859 530.817C636.859 534.609 641.976 536.203 644.399 533.167C646.746 530.226 645.86 528.43 643.403 531.145C642.836 531.771 641.899 532.282 641.318 532.282C640.737 532.282 639.824 531.771 639.288 531.145C638.156 529.823 636.859 529.646 636.859 530.817ZM573.699 532.796C573.699 534.374 573.57 534.458 570.854 534.646L568.009 534.844V532.994C568.009 531.155 568.024 531.145 570.855 531.145C573.615 531.145 573.699 531.193 573.699 532.796ZM573.698 538.685C573.696 540.522 573.679 540.534 570.852 540.538C568.023 540.543 568.009 540.534 568.009 538.688C568.009 536.843 568.023 536.835 570.855 536.835C573.686 536.835 573.699 536.845 573.698 538.685ZM573.699 544.659C573.701 547.583 568.216 546.755 568.05 543.805C568.023 543.326 568.937 543.095 570.855 543.095C573.578 543.095 573.699 543.16 573.699 544.659ZM532.161 547.424C532.161 549.285 531.578 550.492 530.678 550.492C529.83 550.492 529.499 545.378 530.297 544.58C530.888 543.988 532.161 545.93 532.161 547.424ZM564.587 555.755C564.538 559.595 562.099 565.323 560.043 566.423C558.939 567.014 558.905 566.857 558.905 561.039V555.043H561.75C563.651 555.043 564.592 555.28 564.587 555.755ZM632.152 574.432C630.986 575.393 630.032 576.673 630.032 577.276C630.032 578.791 631.073 578.648 632.409 576.95C633.025 576.167 634.106 575.527 634.809 575.527C635.515 575.527 636.693 576.167 637.429 576.95C638.831 578.443 640.273 578.832 640.273 577.716C640.273 576.856 635.88 572.683 634.974 572.683C634.589 572.683 633.319 573.469 632.152 574.432ZM643.51 591.317C643.367 591.865 643.25 591.416 643.25 590.321C643.25 589.226 643.367 588.779 643.51 589.326C643.655 589.874 643.655 590.77 643.51 591.317ZM637.623 594.303C635.658 596.384 633.897 596.482 632.409 594.59C631.076 592.895 630.032 592.749 630.032 594.254C630.032 598.956 638.64 599.007 639.868 594.313C640.35 592.466 639.359 592.463 637.623 594.303ZM612.971 619.069C613.576 619.797 613.536 619.877 612.729 619.568C612.133 619.338 611.439 619.603 610.9 620.265C609.989 621.384 610.458 620.148 611.412 618.915C612.101 618.024 612.104 618.024 612.971 619.069ZM649.378 624.748V629.015H647.67C645.303 629.015 645.106 625.016 647.386 623.222C648.169 622.607 648.809 621.739 648.809 621.292C648.809 620.845 648.937 620.479 649.093 620.479C649.249 620.479 649.378 622.399 649.378 624.748ZM612.837 626.602C612.388 627.143 612.049 627.162 611.463 626.676C610.471 625.851 610.446 625.885 612.059 625.885C613.1 625.885 613.289 626.058 612.837 626.602ZM646.897 631.032L648.525 631.103L648.686 637.591C648.866 644.751 648.537 645.516 645.286 645.516H643.688V637.156C643.688 629.875 643.789 628.936 644.479 629.88C644.915 630.476 646.003 630.994 646.897 631.032ZM648.752 649.072C648.7 650.801 648.668 650.828 648.273 649.499C648.039 648.716 647.952 647.885 648.078 647.649C648.555 646.757 648.807 647.288 648.752 649.072Z" fill="black"/>
</svg>
